<svg width="716" height="629" viewBox="0 0 716 629" fill="none" xmlns="http://www.w3.org/2000/svg">
<path d="M644.572 364.619C644.572 364.619 631.684 360.845 625.498 387.036C619.311 413.228 618.338 427.632 618.338 427.632C618.338 427.632 616.304 433.28 611.564 431.041C606.824 428.802 598.905 421.115 593.02 424.26C586.905 427.519 586.748 434.538 590.987 443.785C595.225 453.031 603.645 473.587 604.39 475.448C605.135 477.31 604.777 480.317 601.268 479.222C597.76 478.128 575.621 465.611 569.464 475.209C563.306 484.808 579.931 508.848 581.693 511.503C583.454 514.157 583.196 515.541 581.865 516.623C580.533 517.705 573.545 512.849 567.072 509.54C560.599 506.232 552.451 503.326 549.43 509.113C546.408 514.899 551.062 534.826 582.165 561.546L597.488 573.094L616.734 567.446C657.073 553.18 670.033 536.323 669.718 529.958C669.403 523.592 660.639 523.517 653.221 524.435C645.803 525.353 637.226 527.479 636.467 526.033C635.708 524.586 636.066 523.227 638.844 521.353C641.622 519.478 667.484 502.81 665.909 491.891C664.334 480.971 638.472 485.135 634.763 484.959C631.054 484.783 632.042 481.839 633.531 480.405C635.02 478.971 651.746 462.793 659.665 455.622C667.584 448.452 670.491 441.948 666.267 436.891C662.042 431.834 651.517 436.463 646.219 436.954C640.92 437.444 641.536 431.494 641.536 431.494C641.536 431.494 646.949 417.832 652.591 391.59C658.233 365.348 644.343 364.505 644.343 364.505" fill="#EBEBEB"/>
<path d="M597.445 569.371C601.741 550.111 607.755 523.554 614.629 494.243C621.502 464.932 627.631 438.388 631.985 419.153C634.133 409.555 635.88 401.78 637.097 396.371C637.698 393.704 638.171 391.615 638.529 390.181C638.686 389.489 638.815 388.923 638.916 388.571C639.016 388.219 639.059 388.03 639.059 388.03C639.059 388.03 639.059 388.219 638.973 388.584L638.672 390.206C638.371 391.653 637.942 393.741 637.398 396.421C636.281 401.805 634.605 409.605 632.486 419.241C628.261 438.489 622.175 465.045 615.302 494.356C608.428 523.668 602.299 550.224 597.946 569.459" fill="#E0E0E0"/>
<path d="M603.66 435.394C604.003 435.706 604.297 436.057 604.533 436.438C605.049 437.117 605.765 438.136 606.638 439.394C608.371 441.91 610.676 445.458 613.125 449.458C615.574 453.459 617.679 456.855 619.34 459.585L621.245 462.642C621.504 463.007 621.72 463.395 621.889 463.799C621.552 463.487 621.259 463.141 621.016 462.768C620.486 462.076 619.77 461.057 618.911 459.786C617.206 457.27 614.958 453.685 612.509 449.722L606.223 439.658C605.464 438.463 604.791 437.444 604.304 436.601C604.033 436.224 603.817 435.818 603.66 435.394Z" fill="#E0E0E0"/>
<path d="M623.765 463.623C623.665 463.472 631.756 458.994 641.837 453.559C651.918 448.125 660.152 443.961 660.281 444.074C660.41 444.187 652.29 448.691 642.195 454.138C632.099 459.585 623.865 463.762 623.765 463.623Z" fill="#E0E0E0"/>
<path d="M610.963 508.232C611.419 508.042 611.9 507.902 612.395 507.817L616.319 506.886C619.612 506.093 624.166 504.986 629.135 503.615C634.104 502.244 638.572 500.873 641.794 499.841L645.617 498.646C646.077 498.473 646.557 498.346 647.049 498.269C646.634 498.512 646.187 498.711 645.718 498.86C644.844 499.212 643.57 499.69 641.966 500.244C638.787 501.363 634.347 502.76 629.35 504.181C624.352 505.603 619.77 506.597 616.462 507.288C614.786 507.628 613.44 507.88 612.495 508.031C611.996 508.153 611.481 508.221 610.963 508.232Z" fill="#E0E0E0"/>
<path d="M586.375 486.204C586.768 486.42 587.129 486.678 587.449 486.972C588.108 487.5 589.039 488.23 590.185 489.224C592.476 491.148 595.598 493.828 599.02 496.772C602.443 499.715 605.521 502.483 607.712 504.483C608.815 505.477 609.703 506.295 610.304 506.873C610.636 507.153 610.929 507.465 611.178 507.804C610.779 507.595 610.418 507.337 610.104 507.037C609.445 506.521 608.514 505.779 607.369 504.785C605.092 502.873 601.956 500.181 598.533 497.237C595.111 494.293 592.032 491.513 589.841 489.513C588.738 488.519 587.85 487.701 587.263 487.135C586.923 486.86 586.625 486.547 586.375 486.204Z" fill="#E0E0E0"/>
<path d="M569.378 524.322C569.861 524.614 570.312 524.947 570.724 525.316L574.246 528.196C577.196 530.637 581.235 534.046 585.702 537.845C590.17 541.644 594.123 545.091 596.972 547.62L600.337 550.639C600.773 550.985 601.163 551.373 601.497 551.797C601.009 551.509 600.558 551.176 600.151 550.803L596.629 547.934C593.693 545.481 589.655 542.072 585.173 538.273C580.69 534.474 576.767 531.027 573.903 528.498L570.538 525.479C570.112 525.125 569.724 524.738 569.378 524.322Z" fill="#E0E0E0"/>
<path d="M600.91 551.004C601.48 550.767 602.075 550.577 602.686 550.438L607.598 549.104C611.736 547.972 617.464 546.387 623.722 544.488C629.98 542.588 635.593 540.714 639.66 539.456L644.472 537.858C645.049 537.639 645.648 537.466 646.262 537.342C645.725 537.635 645.16 537.883 644.572 538.084C643.455 538.525 641.851 539.129 639.832 539.858C635.822 541.317 630.223 543.23 623.937 545.117C617.65 547.004 611.922 548.538 607.726 549.57C605.636 550.073 603.932 550.476 602.757 550.715C602.154 550.863 601.535 550.96 600.91 551.004Z" fill="#E0E0E0"/>
<path d="M407.003 159.502H271.192V283.868H407.003V159.502Z" fill="#E0E0E0"/>
<path d="M397.81 159.502H261.999V283.868H397.81V159.502Z" fill="#EBEBEB"/>
<path d="M379.552 176.221H280.257V267.149H379.552V176.221Z" fill="#FAFAFA"/>
<path d="M280.257 267.753C279.529 268.662 278.699 269.505 277.779 270.269C276.176 271.728 273.942 273.716 271.45 275.879C268.958 278.043 266.653 279.968 264.977 281.339C264.106 282.134 263.147 282.851 262.113 283.478C262.828 282.563 263.654 281.719 264.576 280.962C266.166 279.502 268.414 277.515 270.92 275.338C273.426 273.162 275.717 271.237 277.393 269.866C278.267 269.081 279.226 268.373 280.257 267.753Z" fill="#E0E0E0"/>
<path d="M379.552 267.539C380.586 268.179 381.545 268.908 382.416 269.715C384.091 271.112 386.339 273.074 388.802 275.276C391.265 277.477 393.471 279.477 395.032 280.962C395.934 281.725 396.745 282.568 397.452 283.478C396.416 282.838 395.457 282.109 394.588 281.301C392.927 279.905 390.664 277.943 388.201 275.741C385.738 273.54 383.533 271.527 381.957 270.042C381.062 269.281 380.256 268.442 379.552 267.539Z" fill="#E0E0E0"/>
<path d="M379.28 176.46C380.009 175.551 380.838 174.708 381.757 173.944C383.346 172.484 385.58 170.497 388.086 168.333C390.592 166.169 392.869 164.245 394.559 162.861C395.432 162.071 396.391 161.359 397.423 160.735C396.703 161.645 395.877 162.489 394.96 163.251C393.356 164.71 391.122 166.698 388.616 168.861C386.11 171.025 383.819 172.975 382.129 174.346C381.27 175.14 380.315 175.849 379.28 176.46Z" fill="#E0E0E0"/>
<path d="M279.985 176.686C278.949 176.048 277.989 175.318 277.121 174.51C275.46 173.113 273.197 171.151 270.734 168.949C268.271 166.748 266.08 164.748 264.519 163.263C263.615 162.501 262.804 161.657 262.099 160.747C263.109 161.385 264.045 162.11 264.891 162.911C266.567 164.32 268.829 166.282 271.292 168.484C273.755 170.685 275.961 172.698 277.522 174.183C278.438 174.941 279.263 175.78 279.985 176.686Z" fill="#E0E0E0"/>
<path d="M379.279 267.149C379.279 267.149 379.279 266.998 379.279 266.709C379.279 266.419 379.279 265.992 379.279 265.451C379.279 264.318 379.279 262.67 379.279 260.544C379.279 256.242 379.28 249.977 379.194 242.014C379.194 226.1 379.093 203.393 379.022 176.221L379.351 176.51H280.328L280.701 176.183C280.701 209.558 280.701 240.781 280.701 267.111L280.386 266.834L352.1 266.973L372.234 267.048H377.561H379.408H378.965H377.633H372.363L352.315 267.124L280.4 267.275H280.071V266.985C280.071 240.655 280.071 209.432 280.071 176.057V175.73H280.443H379.466H379.795V176.019C379.795 203.268 379.666 226.037 379.623 242.001C379.623 249.939 379.552 256.179 379.537 260.456C379.537 262.57 379.537 264.23 379.537 265.312C379.537 265.841 379.537 266.243 379.537 266.57C379.537 266.897 379.279 267.149 379.279 267.149Z" fill="#E0E0E0"/>
<path d="M306.448 214.212C306.448 214.212 304.314 236.718 332.067 236.718C332.081 224.704 320.768 215.231 306.448 214.212Z" fill="#EBEBEB"/>
<path d="M357.241 214.225C357.241 214.225 331.623 212.363 331.623 236.743C345.298 236.743 356.095 226.83 357.241 214.225Z" fill="#EBEBEB"/>
<path d="M330.864 201.909C330.864 201.909 309.913 218.414 332.009 236.718C342.248 227.17 341.403 212.174 330.864 201.909Z" fill="#E0E0E0"/>
<path d="M193.549 76.2977H78.3877V181.756H193.549V76.2977Z" fill="#E0E0E0"/>
<path d="M185.759 76.2977H70.5977V181.756H185.759V76.2977Z" fill="#FAFAFA"/>
<path d="M185.788 181.781H70.5547V76.2599H185.788V181.781ZM70.6263 181.718H185.716V76.3228H70.6263V181.718Z" fill="#E0E0E0"/>
<path d="M170.279 90.4628H86.0775V167.566H170.279V90.4628Z" fill="#FAFAFA"/>
<path d="M86.0775 168.081C85.4764 168.855 84.7801 169.568 84.0011 170.207C82.655 171.465 80.7648 173.139 78.6454 174.975C76.5261 176.812 74.5786 178.447 73.1466 179.605C72.4154 180.276 71.5985 180.871 70.7122 181.378C71.3006 180.604 71.9929 179.894 72.7742 179.265C74.1203 178.007 76.0106 176.334 78.1442 174.497C80.2779 172.661 82.2111 171.013 83.6431 169.855C84.3743 169.184 85.1911 168.588 86.0775 168.081Z" fill="#E0E0E0"/>
<path d="M170.265 167.893C171.145 168.421 171.957 169.032 172.685 169.717C174.117 170.899 176.022 172.56 178.112 174.422C180.203 176.284 182.065 177.994 183.382 179.252C184.146 179.895 184.824 180.612 185.401 181.391C184.519 180.874 183.712 180.266 182.995 179.58C181.563 178.397 179.659 176.736 177.568 174.862C175.477 172.988 173.601 171.289 172.284 170.031C171.52 169.389 170.842 168.671 170.265 167.893Z" fill="#E0E0E0"/>
<path d="M170.036 90.6766C170.637 89.9031 171.333 89.1901 172.112 88.5506C173.458 87.2926 175.348 85.6195 177.468 83.7828C179.587 81.9461 181.535 80.3233 182.967 79.1534C183.698 78.4819 184.515 77.8867 185.401 77.3796C184.799 78.1563 184.093 78.8659 183.296 79.493C181.95 80.751 180.06 82.4242 177.926 84.2734C175.792 86.1227 173.859 87.7455 172.427 88.9029C171.709 89.5721 170.907 90.1672 170.036 90.6766Z" fill="#E0E0E0"/>
<path d="M85.9201 90.8653C85.0352 90.3423 84.2229 89.7301 83.5 89.0412C82.068 87.8587 80.1634 86.1982 78.0727 84.3363C75.982 82.4745 74.1204 80.7636 72.8029 79.5056C72.0346 78.8666 71.3567 78.1485 70.7838 77.367C71.6655 77.8839 72.4732 78.4921 73.1896 79.1785C74.6216 80.361 76.5261 82.0216 78.6169 83.896C80.7076 85.7704 82.5835 87.4687 83.9009 88.7393C84.6666 89.3759 85.3443 90.0895 85.9201 90.8653Z" fill="#E0E0E0"/>
<path d="M170.036 167.578C170.036 167.578 170.036 167.44 170.036 167.201C170.036 166.962 170.036 166.584 170.036 166.119C170.036 165.163 170.036 163.766 170.036 161.955C170.036 158.307 170.036 152.998 169.95 146.243C169.95 132.744 169.85 113.535 169.792 90.4628L170.107 90.7521H86.1492L86.5215 90.425C86.5215 118.73 86.5215 145.211 86.5215 167.54L86.2065 167.251L146.995 167.402L164.079 167.478H168.589H169.764C169.897 167.467 170.031 167.467 170.165 167.478H168.733H164.279L147.281 167.553L86.2781 167.691H85.9487V167.415C85.9487 145.085 85.9487 118.604 85.9487 90.2993V89.9722H86.321H170.279H170.408V90.2489C170.408 113.371 170.279 132.669 170.251 146.217C170.251 152.935 170.251 158.231 170.165 161.867C170.165 163.653 170.165 165.024 170.165 165.968C170.165 166.421 170.165 166.76 170.165 167.012C170.156 167.206 170.113 167.397 170.036 167.578Z" fill="#E0E0E0"/>
<path d="M142.226 116.68H114.13V141.361H142.226V116.68Z" fill="#EBEBEB"/>
<path d="M594.81 266.532H531.845V324.199H594.81V266.532Z" fill="#E0E0E0"/>
<path d="M590.543 266.532H527.578V324.199H590.543V266.532Z" fill="#FAFAFA"/>
<path d="M590.571 324.212H527.563V266.52H590.571V324.212ZM527.563 324.212H590.485V266.545H527.606L527.563 324.212Z" fill="#E0E0E0"/>
<path d="M582.079 274.282H536.041V316.437H582.079V274.282Z" fill="#FAFAFA"/>
<path d="M536.041 316.727C535.718 317.151 535.339 317.54 534.909 317.884C534.179 318.563 533.148 319.494 532.045 320.488C530.943 321.482 529.826 322.388 529.038 323.004C528.637 323.374 528.191 323.703 527.706 323.985C528.023 323.557 528.404 323.168 528.838 322.828C529.568 322.149 530.599 321.218 531.773 320.211C532.948 319.205 533.993 318.312 534.781 317.695C535.157 317.331 535.579 317.006 536.041 316.727Z" fill="#E0E0E0"/>
<path d="M582.079 316.626C582.569 316.907 583.016 317.241 583.411 317.62C584.184 318.261 585.23 319.167 586.375 320.136C587.521 321.104 588.538 322.086 589.239 322.778C589.659 323.127 590.03 323.52 590.342 323.948C589.861 323.661 589.419 323.328 589.025 322.954C588.251 322.312 587.206 321.406 586.06 320.438C584.915 319.469 583.898 318.488 583.196 317.796C582.778 317.442 582.403 317.05 582.079 316.626Z" fill="#E0E0E0"/>
<path d="M581.965 274.395C582.287 273.97 582.667 273.582 583.096 273.238C583.826 272.558 584.872 271.627 585.96 270.634C587.048 269.64 588.194 268.734 588.967 268.118C589.367 267.747 589.814 267.417 590.299 267.136C589.982 267.565 589.602 267.954 589.168 268.294C588.437 268.973 587.406 269.904 586.304 270.91C585.201 271.917 584.07 272.81 583.282 273.426C582.883 273.789 582.442 274.114 581.965 274.395Z" fill="#E0E0E0"/>
<path d="M535.926 274.496C535.44 274.211 534.993 273.877 534.594 273.502C533.821 272.86 532.776 271.942 531.63 270.986C530.484 270.03 529.482 269.023 528.766 268.344C528.35 267.991 527.981 267.599 527.663 267.174C528.148 267.456 528.59 267.79 528.981 268.168C529.754 268.809 530.8 269.715 531.945 270.684C533.091 271.653 534.107 272.646 534.809 273.338C535.227 273.688 535.602 274.076 535.926 274.496Z" fill="#E0E0E0"/>
<path d="M581.965 316.45C581.951 316.379 581.951 316.307 581.965 316.236C581.965 316.098 581.965 315.896 581.965 315.645C581.965 315.116 581.965 314.387 581.965 313.38C581.965 311.38 581.965 308.474 581.965 304.776C581.965 297.404 581.965 286.874 581.865 274.282L582.051 274.445H536.041L536.255 274.269C536.255 289.743 536.255 304.222 536.255 316.425L536.069 316.274L569.32 316.362H578.657H578.729H569.435L536.069 316.45H535.897V316.286C535.897 304.084 535.897 289.604 535.897 274.131V273.955H536.112H582.022H582.194V274.244C582.194 286.887 582.194 297.442 582.108 304.839C582.108 308.524 582.108 311.418 582.108 313.406C582.108 314.374 582.108 315.129 582.108 315.645V316.412L581.965 316.45Z" fill="#E0E0E0"/>
<path d="M566.757 288.61H551.392V302.109H566.757V288.61Z" fill="#EBEBEB"/>
<path d="M336.09 59.6668H273.125V117.334H336.09V59.6668Z" fill="#E0E0E0"/>
<path d="M331.823 59.6668H268.858V117.334H331.823V59.6668Z" fill="#FAFAFA"/>
<path d="M331.837 117.346H268.829V59.6418H331.837V117.346ZM268.829 117.346H331.837V59.6795H268.829V117.346Z" fill="#E0E0E0"/>
<path d="M323.36 67.4162H277.321V109.572H323.36V67.4162Z" fill="#FAFAFA"/>
<path d="M277.321 109.861C276.999 110.286 276.619 110.674 276.19 111.019C275.445 111.698 274.414 112.616 273.254 113.623C272.094 114.629 271.035 115.522 270.247 116.139C269.849 116.508 269.402 116.833 268.915 117.107C269.251 116.695 269.63 116.312 270.047 115.962C270.791 115.271 271.822 114.352 272.911 113.346C273.999 112.339 275.144 111.446 275.932 110.83C276.341 110.451 276.808 110.125 277.321 109.861Z" fill="#E0E0E0"/>
<path d="M323.36 109.748C323.841 110.039 324.283 110.376 324.677 110.754C325.451 111.396 326.51 112.302 327.642 113.27C328.773 114.239 329.804 115.22 330.506 115.912C330.932 116.26 331.307 116.653 331.623 117.082C331.139 116.799 330.697 116.465 330.305 116.088C329.532 115.447 328.472 114.528 327.327 113.572C326.181 112.616 325.164 111.622 324.463 110.93C324.042 110.577 323.671 110.18 323.36 109.748Z" fill="#E0E0E0"/>
<path d="M323.231 67.5294C323.562 67.107 323.946 66.7188 324.377 66.3721C325.107 65.6802 326.138 64.7618 327.241 63.7554C328.343 62.749 329.46 61.8684 330.248 61.2394C330.646 60.8705 331.093 60.5452 331.58 60.2708C331.257 60.6955 330.877 61.0841 330.448 61.4281C329.718 62.1075 328.673 63.0384 327.513 64.0322C326.353 65.026 325.293 65.9318 324.506 66.5482C324.126 66.9185 323.699 67.2478 323.231 67.5294Z" fill="#E0E0E0"/>
<path d="M277.192 67.6301C276.709 67.347 276.266 67.0133 275.875 66.6363C275.102 65.9821 274.042 65.0764 272.911 64.1203C271.779 63.1642 270.748 62.1704 270.047 61.4785C269.622 61.1298 269.247 60.7369 268.93 60.3085C269.408 60.5969 269.85 60.9302 270.247 61.3024C271.02 61.9565 272.08 62.8623 273.226 63.8184C274.371 64.7744 275.388 65.7808 276.09 66.4727C276.512 66.8156 276.883 67.2045 277.192 67.6301Z" fill="#E0E0E0"/>
<path d="M323.231 109.572V108.779C323.231 108.251 323.231 107.521 323.231 106.502C323.231 104.515 323.231 101.609 323.231 97.9102C323.231 90.5257 323.231 80.0088 323.145 67.4162L323.317 67.5672H277.407L277.608 67.3911C277.608 82.8645 277.608 97.3441 277.608 109.547L277.436 109.396L310.687 109.471H320.023H323.346C323.346 109.471 323.346 109.471 323.145 109.471H320.095H310.787L277.436 109.559H277.264V109.572C277.264 97.3692 277.264 82.8896 277.264 67.4162V67.2401H277.464H323.374H323.56V67.3911C323.56 79.9711 323.56 90.576 323.46 97.9856C323.46 101.659 323.46 104.552 323.46 106.54C323.46 107.521 323.46 108.276 323.46 108.792V109.446C323.392 109.498 323.314 109.541 323.231 109.572Z" fill="#E0E0E0"/>
<path d="M308.023 81.7448H292.658V95.2432H308.023V81.7448Z" fill="#EBEBEB"/>
<path d="M673.427 574.579C673.427 574.755 532.189 574.906 358.014 574.906C183.84 574.906 42.5734 574.755 42.5734 574.579C42.5734 574.403 183.783 574.252 358.014 574.252C532.246 574.252 673.427 574.39 673.427 574.579Z" fill="#263238"/>
<path d="M278.467 574.227C328.924 574.227 369.828 538.293 369.828 493.966C369.828 449.64 328.924 413.706 278.467 413.706C228.009 413.706 187.105 449.64 187.105 493.966C187.105 538.293 228.009 574.227 278.467 574.227Z" fill="#6BCACB"/>
<g opacity="0.3">
<path d="M201.812 537.594C211.077 537.984 218.452 533.04 222.647 525.769C226.843 518.497 227.717 510.169 228.519 502.055L231.784 469.058C232.342 463.422 232.929 457.66 235.435 452.44C237.941 447.219 242.695 442.514 248.953 441.118C255.44 439.721 263.001 441.935 268.572 438.69C273.884 435.608 275.016 428.827 280.171 425.556C285.655 422.072 293.345 423.883 299.474 426.387C311.274 431.215 321.836 438.097 330.52 446.615C339.198 455.157 346.659 465.749 358.974 469.523C362.582 470.63 366.993 470.932 369.9 468.731C374.196 465.46 372.377 459.321 369.814 454.893C362.602 442.546 352.438 431.713 340.018 423.137C327.599 414.56 313.217 408.443 297.856 405.202C283.865 402.346 268.987 401.994 255.283 405.78C241.578 409.567 229.192 417.769 222.776 429.066C215.502 441.885 218.996 457.17 216.046 471.259C211.306 493.966 205.864 515.83 201.826 537.594" fill="black"/>
</g>
<path d="M335.274 519.629C335.288 519.395 335.331 519.163 335.403 518.938C335.546 518.434 335.732 517.793 335.947 517.013C336.062 516.585 336.205 516.12 336.348 515.616C336.491 515.113 336.577 514.535 336.706 513.943C336.95 512.685 337.322 511.427 337.494 509.83C337.594 509.062 337.709 508.27 337.837 507.439C337.966 506.609 337.966 505.729 338.038 504.823C338.224 503.011 338.181 501.049 338.181 499.036C338.035 494.62 337.441 490.225 336.405 485.902C335.301 481.601 333.772 477.392 331.837 473.322C330.878 471.473 330.004 469.687 328.973 468.114C328.472 467.322 328.043 466.529 327.541 465.812L326.109 463.749C325.221 462.416 324.248 461.309 323.46 460.302C323.059 459.799 322.701 459.321 322.329 458.906L321.312 457.786L319.88 456.214C319.706 456.035 319.552 455.841 319.422 455.635C319.633 455.779 319.825 455.944 319.995 456.126L321.498 457.623L322.572 458.717C322.959 459.12 323.331 459.585 323.747 460.076C324.577 461.082 325.594 462.164 326.51 463.498L327.942 465.561C328.458 466.278 328.902 467.058 329.374 467.863C330.42 469.435 331.322 471.222 332.238 473.083C336.307 481.281 338.483 490.107 338.639 499.049C338.639 501.112 338.639 503.062 338.425 504.886C338.339 505.791 338.31 506.672 338.181 507.515C338.052 508.358 337.909 509.15 337.78 509.93C337.58 511.465 337.179 512.836 336.892 514.044C336.735 514.635 336.606 515.201 336.463 515.717L335.99 517.101C335.718 517.868 335.503 518.497 335.331 519C335.34 519.211 335.321 519.422 335.274 519.629Z" fill="#FAFAFA"/>
<path d="M331.58 530.197C330.063 534.639 327.38 538.707 323.746 542.072C323.575 541.959 325.665 539.481 327.813 536.21C329.961 532.939 331.379 530.121 331.58 530.197Z" fill="#FAFAFA"/>
<path d="M255.411 418.008C256.07 419.656 256.4 421.405 257.073 423.04C257.66 424.73 258.927 426.175 260.638 427.104C261.507 427.537 262.522 427.685 263.503 427.521C264.484 427.358 265.367 426.893 265.994 426.21C266.466 425.461 266.731 424.625 266.767 423.77C267.001 421.84 267.106 419.899 267.082 417.958C267.202 416.716 266.855 415.475 266.094 414.423C265.585 413.933 264.946 413.562 264.234 413.343C263.522 413.123 262.759 413.062 262.013 413.165C260.523 413.383 259.097 413.857 257.817 414.561C256.537 415.271 255.174 415.858 253.75 416.31" fill="#0077B6"/>
<g opacity="0.5">
<path d="M255.411 418.008C256.07 419.656 256.4 421.405 257.073 423.04C257.66 424.73 258.927 426.175 260.638 427.104C261.507 427.537 262.522 427.685 263.503 427.521C264.484 427.358 265.367 426.893 265.994 426.21C266.466 425.461 266.731 424.625 266.767 423.77C267.001 421.84 267.106 419.899 267.082 417.958C267.202 416.716 266.855 415.475 266.094 414.423C265.585 413.933 264.946 413.562 264.234 413.343C263.522 413.123 262.759 413.062 262.013 413.165C260.523 413.383 259.097 413.857 257.817 414.561C256.537 415.271 255.174 415.858 253.75 416.31" fill="black"/>
</g>
<path d="M163.878 460.428C164.111 460.52 164.317 460.658 164.48 460.831C164.948 461.331 165.179 461.971 165.124 462.617C165.098 463.138 164.905 463.642 164.568 464.071C164.231 464.5 163.764 464.838 163.219 465.045C162.499 465.314 161.712 465.415 160.934 465.338C160.156 465.26 159.414 465.008 158.78 464.605C155.916 462.869 154.728 458.566 157.019 455.094C158.359 453.433 160.057 452.018 162.017 450.93C163.96 449.717 165.454 448.028 166.313 446.074C167.143 444.111 167.432 442.003 167.157 439.923C166.891 437.978 166.257 436.086 165.281 434.324C164.408 432.712 163.358 431.178 162.145 429.745C161.029 428.511 159.987 427.226 159.024 425.896C158.205 424.759 157.713 423.463 157.592 422.122C157.511 421.115 157.723 420.106 158.207 419.191C158.544 418.61 159.035 418.109 159.639 417.731C159.83 417.596 160.049 417.493 160.284 417.43C159.532 417.91 158.93 418.551 158.537 419.291C158.115 420.177 157.953 421.142 158.064 422.097C158.217 423.354 158.708 424.561 159.496 425.619C160.341 426.877 161.501 428.022 162.675 429.393C163.927 430.847 165.02 432.401 165.94 434.035C166.956 435.86 167.623 437.819 167.916 439.835C168.208 442.017 167.904 444.229 167.029 446.288C166.124 448.355 164.545 450.14 162.489 451.421C160.597 452.451 158.949 453.793 157.635 455.371C155.487 458.554 156.546 462.592 159.067 464.177C159.626 464.548 160.284 464.787 160.979 464.871C161.673 464.954 162.381 464.88 163.033 464.655C163.436 464.517 163.798 464.301 164.092 464.023C164.387 463.744 164.605 463.411 164.732 463.048C164.859 462.685 164.89 462.301 164.824 461.926C164.758 461.551 164.596 461.193 164.351 460.881C164.079 460.604 163.864 460.428 163.878 460.428Z" fill="#263238"/>
<path d="M225.024 429.859L277.078 413.316L305.188 423.732L334.501 378.796L325.551 351.183L240.189 352.768L214.642 353.498L175.592 370.003L190.17 414.41L185.73 432.739L225.024 429.859Z" fill="#B78876"/>
<path d="M189.797 413.115C241.865 402.975 232.929 427.355 233.387 427.204C240.698 426.834 248.026 427.592 255.039 429.443C269.775 433.784 266.853 416.436 266.853 416.436C266.853 416.436 266.968 429.808 259.264 425.581C251.559 421.354 254.968 352.617 254.968 352.617H240.189C226.915 343.811 214.642 353.485 214.642 353.485L176.265 372.041L177.582 375.941C177.582 375.941 196.814 367.877 203.745 384.244C210.905 401.126 188.551 409.404 188.551 409.404L189.797 413.115Z" fill="#0077B6"/>
<path d="M293.002 374.142C293.002 374.318 292.286 374.431 291.441 374.381C290.596 374.33 289.894 374.154 289.908 373.966C289.923 373.777 290.624 373.676 291.484 373.727C292.343 373.777 293.016 373.953 293.002 374.142Z" fill="#AA6550"/>
<path d="M240.476 402.258C240.375 402.17 241.593 401.252 242.91 399.365C244.599 396.931 245.291 394.064 244.872 391.238C244.436 388.752 243.188 386.431 241.278 384.558C240.206 383.495 238.989 382.553 237.655 381.753C237.368 381.602 237.254 381.526 237.268 381.501C237.282 381.476 237.426 381.501 237.726 381.602C239.221 382.247 240.566 383.13 241.693 384.206C243.767 386.107 245.127 388.522 245.588 391.125C246.043 394.124 245.222 397.166 243.282 399.667C242.714 400.417 242.046 401.106 241.292 401.717C240.834 402.095 240.576 402.283 240.476 402.258Z" fill="#263238"/>
<path d="M276.877 404.434C277.459 407.537 277.546 410.696 277.135 413.819C276.719 412.283 276.55 410.704 276.634 409.127C276.471 407.56 276.552 405.981 276.877 404.434Z" fill="#AA6550"/>
<path d="M214.9 353.209C215.101 353.209 216.833 366.179 218.767 382.206C220.7 398.232 222.103 411.253 221.903 411.278C221.702 411.303 219.955 398.308 218.022 382.281C216.089 366.254 214.685 353.234 214.9 353.209Z" fill="#FAFAFA"/>
<path d="M217.034 411.366C216.833 411.366 214.914 398.987 212.738 383.69C210.561 368.393 209 355.939 209.201 355.913C209.401 355.888 211.32 368.292 213.497 383.589C215.673 398.887 217.234 411.366 217.034 411.366Z" fill="#FAFAFA"/>
<path d="M185.73 432.614L169.148 565.094C169.148 565.094 147.596 571.384 144.317 574.579H191.802C193.721 573.321 229.249 427.972 229.249 427.972L185.73 432.614Z" fill="#B78876"/>
<path d="M219.339 439.394C219.339 439.394 219.01 439.168 218.538 438.677C217.877 437.971 217.293 437.213 216.79 436.413C215.123 433.745 214.283 430.739 214.356 427.696C214.429 424.654 215.412 421.681 217.206 419.078C217.748 418.298 218.366 417.562 219.053 416.876C219.554 416.398 219.855 416.172 219.898 416.197C219.941 416.222 218.896 417.316 217.664 419.304C216.05 421.883 215.17 424.766 215.1 427.708C215.03 430.65 215.773 433.564 217.263 436.199C218.394 438.224 219.44 439.319 219.339 439.394Z" fill="#AA6550"/>
<path d="M214.642 353.498L210.604 337.798L218.781 224.138C218.538 216.753 217.578 211.696 217.707 206.853C217.879 200.865 217.464 198.399 216.189 198.437C214.485 198.437 215.144 198.437 213.082 209.243C213.082 209.243 215.874 193.757 212.265 196.663C210.662 197.921 208.198 210.816 208.198 210.816C211.263 200.651 210.59 196.399 208.814 196.072C206.237 195.606 203.387 211.168 203.387 211.168C203.387 211.168 205.836 199.292 205.521 197.103C205.206 194.915 203.129 196.852 201.912 198.89C200.566 201.179 194.852 215.458 192.948 219.508C192.844 219.872 192.649 220.211 192.377 220.5C192.105 220.789 191.763 221.021 191.376 221.179C190.989 221.337 190.567 221.417 190.14 221.413C189.713 221.409 189.293 221.321 188.909 221.156C182.838 217.697 176.021 217.848 174.188 218.64C172.356 219.433 173.014 221.911 175.248 222.213C177.62 222.751 179.898 223.568 182.022 224.641C183.751 225.447 185.314 226.502 186.647 227.761C188.193 229.233 189.425 230.529 190.442 231.648L174.776 335.71C174.776 335.71 169.048 357.096 175.878 370.77" fill="#B78876"/>
<path d="M211.821 215.332C212.136 215.332 212.924 212.074 213.597 207.96C214.27 203.846 214.542 200.475 214.227 200.412C213.912 200.349 213.125 203.683 212.466 207.784C211.807 211.885 211.521 215.282 211.821 215.332Z" fill="#AA6550"/>
<path d="M207.01 215.118C207.311 215.118 208.442 211.696 209.387 207.356C210.332 203.016 210.962 199.456 210.661 199.406C210.361 199.355 209.229 202.815 208.284 207.155C207.339 211.495 206.695 215.017 207.01 215.118Z" fill="#AA6550"/>
<path d="M202.012 214.778C202.313 214.841 203.444 211.558 204.404 207.469C205.363 203.381 205.993 200.009 205.692 199.921C205.392 199.833 204.26 203.129 203.287 207.23C202.313 211.331 201.697 214.715 202.012 214.778Z" fill="#AA6550"/>
<path d="M203.917 339.031C204.766 341.876 206.042 344.609 207.712 347.158C209.595 349.593 211.845 351.793 214.399 353.699C213.486 353.345 212.652 352.851 211.936 352.24C210.057 350.885 208.441 349.271 207.153 347.46C205.836 345.658 204.868 343.677 204.289 341.597C203.995 340.768 203.869 339.899 203.917 339.031Z" fill="#AA6550"/>
<path d="M163.806 393.024C163.978 400.421 167.315 407.68 163.434 414.234C161.759 417.052 159.396 419.769 159.224 422.902C159.024 426.877 162.432 430.45 162.747 434.4C163.291 441.545 153.868 447.307 154.613 454.44C155.094 456.9 156.157 459.245 157.735 461.321C159.301 463.4 160.282 465.776 160.599 468.253C160.708 469.512 160.348 470.769 159.573 471.833C158.798 472.898 157.65 473.712 156.303 474.153C155.767 471.554 154.43 469.135 152.436 467.158C147.983 469.611 151.606 476.078 148.14 479.449C146.966 480.438 145.521 481.144 143.945 481.499C138.338 482.906 132.578 483.792 126.761 484.141L123.438 479.21C123.106 481.206 123.372 483.244 124.212 485.123C117.003 486.825 109.547 487.575 102.087 487.349C98.1206 487.223 93.8103 486.695 91.0465 484.343C88.6407 482.305 87.8961 479.311 87.6956 476.455C87.3656 471.458 88.3454 466.461 90.5596 461.85C91.9916 458.73 94.0967 455.673 94.1969 452.326C94.3544 446.313 88.1968 441.369 87.0369 435.419C85.4903 427.204 93.7243 419.87 94.8127 411.605C95.3855 407.278 93.9535 402.937 94.1539 398.585C94.3544 394.232 97.0179 389.376 102.102 388.37C102.102 388.37 103.534 380.91 111.123 379.136C118.713 377.362 163.506 379.614 163.806 393.024Z" fill="#263238"/>
<path d="M200.48 387.539C202.016 391.267 201.812 395.377 199.912 398.973C198.013 402.569 194.573 405.36 190.341 406.737L123.037 428.626C121.73 429.05 120.288 429.027 118.999 428.56C117.71 428.094 116.667 427.22 116.078 426.11L104.393 404.12C103.44 402.326 102.91 400.381 102.836 398.402C102.762 396.423 103.144 394.452 103.961 392.606C104.777 390.761 106.01 389.08 107.585 387.664C109.161 386.249 111.046 385.128 113.128 384.369C122.88 380.822 134.952 376.821 142.799 375.563C158.551 373.148 164.422 382.646 164.422 382.646L179.029 378.381C183.256 377.143 187.866 377.403 191.879 379.107C195.891 380.81 198.987 383.822 200.509 387.502L200.48 387.539Z" fill="#B78876"/>
<path d="M123.667 385.791C124.165 385.632 124.714 385.653 125.194 385.849C125.674 386.044 126.047 386.399 126.231 386.835C126.334 387.043 126.388 387.267 126.391 387.493C126.394 387.72 126.346 387.945 126.248 388.154C126.151 388.364 126.007 388.555 125.824 388.715C125.642 388.875 125.424 389.002 125.185 389.087C124.687 389.243 124.14 389.223 123.659 389.03C123.177 388.838 122.8 388.488 122.608 388.055C122.505 387.846 122.451 387.62 122.449 387.392C122.446 387.164 122.496 386.938 122.595 386.727C122.693 386.516 122.839 386.324 123.023 386.164C123.208 386.003 123.427 385.876 123.667 385.791Z" fill="#263238"/>
<path d="M120.403 384.784C120.732 384.923 120.145 386.52 120.861 388.332C121.577 390.144 123.123 391.163 122.952 391.439C122.78 391.716 122.35 391.439 121.634 391.062C120.72 390.476 120.031 389.66 119.658 388.722C119.307 387.774 119.307 386.752 119.658 385.803C119.858 385.036 120.288 384.722 120.403 384.784Z" fill="#263238"/>
<path d="M130.312 403.818C130.812 403.666 131.36 403.689 131.84 403.884C132.321 404.079 132.697 404.429 132.89 404.862C132.991 405.071 133.044 405.295 133.046 405.523C133.049 405.75 133 405.975 132.903 406.185C132.806 406.396 132.662 406.587 132.48 406.749C132.299 406.91 132.083 407.039 131.844 407.127C131.344 407.282 130.795 407.26 130.314 407.065C129.832 406.87 129.457 406.517 129.267 406.082C129.165 405.873 129.112 405.649 129.11 405.422C129.108 405.195 129.156 404.97 129.254 404.759C129.351 404.549 129.494 404.357 129.676 404.196C129.857 404.034 130.074 403.906 130.312 403.818Z" fill="#263238"/>
<path d="M127.749 402.56C128.078 402.698 127.505 404.309 128.207 406.108C128.909 407.906 130.484 408.85 130.312 409.152C130.14 409.454 129.711 409.215 128.995 408.775C128.069 408.178 127.378 407.342 127.018 406.384C126.667 405.436 126.667 404.414 127.018 403.466C127.219 402.761 127.591 402.434 127.749 402.56Z" fill="#263238"/>
<path d="M140.493 391.301C139.773 390.454 139.181 389.527 138.732 388.546C138.503 388.093 138.217 387.69 137.83 387.716C137.276 387.848 136.779 388.119 136.398 388.496L132.918 391.074C127.949 394.698 123.782 397.49 123.625 397.364C123.467 397.239 127.348 394.106 132.331 390.483L135.854 387.967C136.375 387.482 137.075 387.175 137.83 387.099C138.042 387.112 138.249 387.165 138.435 387.257C138.621 387.348 138.781 387.475 138.904 387.628C139.081 387.863 139.225 388.117 139.334 388.382C139.855 389.31 140.245 390.29 140.493 391.301Z" fill="#263238"/>
<path d="M164.437 382.684C166.956 388.844 167.487 395.497 165.969 401.906C165.969 401.906 174.704 394.635 168.174 381.891L164.437 382.684Z" fill="#AA6550"/>
<path d="M145.763 390.571C145.403 391.065 145.192 391.632 145.152 392.218C145.112 392.804 145.244 393.389 145.534 393.918C145.732 394.305 146.017 394.654 146.371 394.944C146.725 395.233 147.142 395.457 147.596 395.603C148.034 395.743 148.51 395.76 148.959 395.652C149.407 395.543 149.807 395.316 150.102 394.999C150.364 394.599 150.482 394.137 150.438 393.677C150.395 393.216 150.192 392.778 149.859 392.421C149.181 391.665 148.339 391.037 147.381 390.571C147.134 390.42 146.858 390.309 146.565 390.244C146.427 390.209 146.281 390.212 146.145 390.253C146.01 390.293 145.891 390.369 145.806 390.471" fill="#AA6550"/>
<path d="M144.002 396.27C143.873 395.981 146.107 395.301 147.038 393.138C147.969 390.974 146.909 388.961 147.21 388.848C147.51 388.735 147.84 389.187 148.212 390.106C148.687 391.251 148.687 392.508 148.212 393.653C147.757 394.758 146.826 395.662 145.62 396.169C144.632 396.408 144.045 396.358 144.002 396.27Z" fill="#263238"/>
<path d="M123.811 402.774C124.441 402.774 124.885 404.673 126.002 406.724C127.119 408.775 128.465 410.284 128.064 410.712C127.878 410.913 127.233 410.712 126.417 410.246C125.388 409.52 124.559 408.598 123.993 407.55C123.428 406.502 123.14 405.355 123.152 404.195C123.224 403.302 123.51 402.774 123.811 402.774Z" fill="#263238"/>
<path d="M114.675 387.25C115.276 387.426 115.276 388.823 115.834 390.332C116.393 391.842 117.266 393.024 116.865 393.465C116.679 393.653 116.121 393.603 115.433 393.175C114.598 392.598 113.987 391.807 113.686 390.911C113.369 390.022 113.369 389.07 113.686 388.181C113.987 387.464 114.402 387.187 114.675 387.25Z" fill="#263238"/>
<path d="M100.469 396.194C101.443 391.162 104.436 406.422 110.164 407.454C112.883 407.72 115.62 407.817 118.355 407.743C121.09 407.881 124.083 408.624 125.515 410.599C126.947 412.574 126.947 415.215 129.095 416.549C130.899 417.719 133.391 417.279 135.653 417.43C140.651 417.794 144.704 421.417 146.608 425.506C148.513 429.594 148.713 434.085 149.043 438.488C149.372 442.891 149.945 447.433 152.451 451.245L116.465 434.01C116.465 434.01 98.1493 408.309 100.469 396.194Z" fill="#263238"/>
<path d="M141.925 419.757C141.31 422.046 143.357 425.607 146.021 426.198C147.333 426.446 148.7 426.316 149.921 425.826C151.141 425.337 152.149 424.514 152.794 423.481C154.055 421.405 154.427 419.782 152.794 417.87" fill="#B78876"/>
<path d="M109.734 481.411C109.891 481.086 110.083 480.774 110.307 480.481L112.025 477.876C112.916 476.503 113.71 475.083 114.402 473.624C115.333 471.701 115.904 469.657 116.092 467.573C116.344 465.088 115.724 462.595 114.316 460.428C112.452 458.017 110.15 455.892 107.5 454.138C106.097 453.121 104.781 452.015 103.562 450.829C102.264 449.57 101.288 448.082 100.698 446.464C100.178 444.756 100.115 442.965 100.512 441.231C100.917 439.48 101.521 437.768 102.316 436.123C103.834 432.815 105.553 429.632 105.853 426.336C105.982 424.73 105.683 423.119 104.98 421.631C104.251 420.206 103.338 418.86 102.259 417.618C101.242 416.36 100.183 415.165 99.2518 413.932C98.3579 412.737 97.5864 411.474 96.9463 410.158C95.7804 407.774 95.181 405.205 95.185 402.61C95.2034 400.465 95.766 398.351 96.8318 396.421C97.6061 394.951 98.684 393.62 100.011 392.496C100.865 391.796 101.83 391.207 102.875 390.747C103.233 390.584 103.519 390.496 103.705 390.42L103.992 390.332C102.634 390.962 101.381 391.754 100.269 392.685C99.0037 393.799 97.9756 395.102 97.2327 396.534C96.2527 398.429 95.7636 400.492 95.8007 402.573C95.8289 405.096 96.4429 407.587 97.605 409.894C98.2364 411.191 99.0034 412.433 99.8962 413.605C100.798 414.863 101.858 415.995 102.903 417.241C104.033 418.517 104.993 419.901 105.767 421.367C106.52 422.958 106.844 424.68 106.713 426.399C106.398 429.871 104.636 433.117 103.133 436.4C101.629 439.684 100.469 443.118 101.529 446.301C102.588 449.483 105.495 451.698 108.116 453.71C110.801 455.498 113.129 457.666 115.004 460.126C116.48 462.417 117.101 465.057 116.78 467.674C116.555 469.799 115.936 471.877 114.947 473.826C114.169 475.285 113.274 476.693 112.269 478.04C111.495 479.16 110.837 480.015 110.436 480.556C110.228 480.857 109.993 481.143 109.734 481.411Z" fill="#455A64"/>
<path d="M135.109 484.242C135.721 483.013 136.247 481.753 136.684 480.468C137.762 476.965 137.717 473.269 136.556 469.788C135.77 467.4 134.457 465.173 132.689 463.233C130.544 461.08 128.038 459.226 125.257 457.736C122.106 456.064 119.298 453.937 116.951 451.446C115.739 450.072 114.893 448.477 114.474 446.779C114.138 445.004 114.31 443.184 114.975 441.483C116.164 438.086 118.226 435.042 118.24 431.783C118.079 428.642 116.706 425.643 114.345 423.279C112.207 421.119 109.885 419.105 107.4 417.253C105.243 415.59 103.32 413.707 101.672 411.643C100.428 410.146 99.5908 408.419 99.2258 406.593C98.8609 404.768 98.9776 402.893 99.5669 401.113C99.9322 400.156 100.523 399.278 101.3 398.534C101.502 398.347 101.717 398.17 101.944 398.006C102.087 397.893 102.173 397.843 102.187 397.855C101.11 398.784 100.305 399.928 99.839 401.189C99.32 402.923 99.2499 404.738 99.634 406.499C100.018 408.26 100.847 409.923 102.059 411.366C103.725 413.375 105.647 415.211 107.787 416.838C110.316 418.7 112.668 420.741 114.818 422.94C117.296 425.403 118.741 428.537 118.913 431.821C118.913 435.318 116.765 438.426 115.62 441.709C114.994 443.327 114.832 445.055 115.147 446.741C115.538 448.348 116.336 449.857 117.481 451.157C119.778 453.582 122.517 455.657 125.586 457.296C128.43 458.826 130.99 460.731 133.176 462.944C134.98 464.945 136.3 467.248 137.057 469.712C138.199 473.274 138.169 477.046 136.971 480.594C136.555 481.883 135.927 483.111 135.109 484.242Z" fill="#455A64"/>
<path d="M91.8628 484.33C91.4547 484.385 91.0393 484.385 90.6313 484.33C89.4487 484.156 88.327 483.748 87.352 483.135C85.8145 482.163 84.6148 480.834 83.8865 479.298C83.0123 477.224 82.7897 474.982 83.2421 472.807C83.7807 470.207 84.7454 467.69 86.1061 465.334C87.7316 462.691 89.1062 459.936 90.216 457.094C90.748 455.566 91.0088 453.975 90.9893 452.377C90.9019 450.715 90.4801 449.079 89.7434 447.546C89.0417 445.948 88.1253 444.388 87.352 442.715C86.4817 441.024 85.9953 439.199 85.92 437.344C85.92 433.57 87.7673 430.148 89.4284 427.053C91.266 424.178 92.5438 421.053 93.2089 417.807C93.6528 414.712 92.6504 411.756 91.8914 409.001C90.9989 406.463 90.6446 403.802 90.8461 401.151C91.1216 398.981 91.9223 396.888 93.1945 395.012C94.1647 393.596 95.3825 392.322 96.8032 391.238C97.6838 390.567 98.6439 389.98 99.6672 389.489C100.034 389.323 100.412 389.176 100.798 389.049C99.4216 389.725 98.1262 390.522 96.9321 391.427C95.5733 392.519 94.4183 393.793 93.5096 395.201C92.2787 397.049 91.5167 399.108 91.2757 401.239C91.1259 403.832 91.5091 406.427 92.4069 408.9C93.515 411.79 94.0006 414.836 93.8389 417.882C93.1844 421.198 91.8965 424.392 90.0298 427.33C88.383 430.425 86.5357 433.721 86.6073 437.331C86.6795 439.106 87.1364 440.852 87.9534 442.476C88.7124 444.112 89.6289 445.684 90.3449 447.32C91.1064 448.917 91.5333 450.621 91.605 452.352C91.6189 454.009 91.3486 455.659 90.8031 457.245C89.6919 460.11 88.3175 462.891 86.6933 465.561C85.3134 467.86 84.3152 470.322 83.729 472.87C83.2567 474.969 83.4347 477.141 84.2445 479.16C84.9202 480.652 86.0435 481.957 87.4952 482.934C88.4215 483.544 89.486 483.973 90.6169 484.192C91.4332 484.33 91.8628 484.33 91.8628 484.33Z" fill="#263238"/>
<path d="M388.631 413.882C388.107 413.506 387.627 413.084 387.199 412.624L383.318 409.127C380.024 406.196 375.37 402.246 369.957 398.144C364.544 394.043 359.389 390.596 355.637 388.156L351.126 385.313C350.554 384.989 350.017 384.618 349.523 384.206C350.141 384.46 350.735 384.759 351.298 385.099C352.415 385.69 354.005 386.609 355.952 387.779C360.99 390.841 365.842 394.133 370.487 397.641C375.126 401.155 379.548 404.884 383.733 408.812C385.337 410.322 386.597 411.567 387.456 412.448C387.893 412.896 388.286 413.376 388.631 413.882Z" fill="#455A64"/>
<path d="M535.468 529.618C536.251 530.131 536.897 530.79 537.36 531.546C537.822 532.302 538.091 533.139 538.146 533.996C538.242 535.71 537.935 537.423 537.243 539.028C532.947 550.35 521.148 558.263 508.675 562.93C501.386 565.647 493.081 567.509 485.606 565.207C483.357 564.515 481.023 563.181 480.679 561.118C480.618 559.793 481.001 558.48 481.782 557.344C485.616 550.282 490.876 543.889 497.305 538.474C503.77 533.033 511.735 529.161 520.417 527.24C525.372 526.209 531.157 526.108 534.938 529.115" fill="#455A64"/>
<path d="M515.763 521.995C515.763 521.995 538.103 541.959 542.971 549.029C547.84 556.099 552.838 574.579 552.838 574.579L515.921 573.472L518.427 553.621L498.952 539.179L506.112 527.857C509.09 523.064 515.763 521.995 515.763 521.995Z" fill="#B78876"/>
<path d="M521.248 554.224L516.952 566.188C516.952 566.188 509.663 566.93 509.878 569.346C510.093 571.761 510.293 574.566 510.293 574.566H552.895L521.248 554.224Z" fill="#B78876"/>
<path d="M442.073 455.157C447.614 458.617 439.738 444.816 435.07 439.394C431.836 435.745 429.279 431.669 427.495 427.317L447.171 391.087L420.578 379.539L399.299 417.216C398.686 417.88 398.367 418.716 398.398 419.571C398.43 420.426 398.81 421.242 399.471 421.87L442.073 455.157Z" fill="#B78876"/>
<path d="M325.322 351.083L358.473 341.61L438.278 320.148C443.711 318.685 449.52 318.698 454.944 320.184C460.369 321.67 465.156 324.56 468.679 328.476C472.236 332.422 474.34 337.227 474.711 342.25C475.082 347.273 473.702 352.276 470.756 356.593L453.285 417.153C450.424 418.425 447.105 418.65 444.055 417.781C441.005 416.911 438.47 415.017 437.003 412.511L435.185 409.391C432.368 405.685 428.309 402.84 423.571 401.249C418.833 399.658 413.649 399.399 408.736 400.509L421.051 368.682L365.203 396.157L330.334 381.249L325.322 351.083Z" fill="#263238"/>
<path d="M370.759 398.95L536.484 530.234L531.902 530.939C526.77 531.07 521.823 532.656 517.802 535.461C513.78 538.266 510.9 542.139 509.591 546.5C508.133 551.368 504.721 555.608 499.984 558.44C495.247 561.272 489.505 562.505 483.815 561.911L480.851 561.596C381.456 481.814 308.195 421.782 311.202 424.764L338.052 376.029L370.759 398.95Z" fill="#263238"/>
<path d="M316.229 351.825C316.229 351.825 322.1 392.572 302.467 422.273L315.598 427.745L350.682 385.539L338.224 347.346L316.229 351.825Z" fill="#263238"/>
<path d="M322.014 350.655C322.082 350.911 322.125 351.172 322.143 351.435C322.143 352.014 322.3 352.756 322.4 353.674C322.644 355.7 322.973 358.492 323.374 361.901C323.775 365.311 324.305 369.512 324.42 374.142C324.543 379.17 324.14 384.198 323.217 389.162C321.709 398.223 318.311 406.961 313.193 414.939C311.612 417.331 309.826 419.615 307.851 421.77C307.15 422.524 306.548 423.028 306.162 423.468C305.98 423.676 305.768 423.862 305.531 424.021C305.686 423.794 305.864 423.58 306.061 423.38C306.405 422.965 306.964 422.399 307.622 421.606C309.5 419.411 311.208 417.108 312.734 414.712C317.675 406.732 320.976 398.049 322.486 389.062C323.395 384.134 323.812 379.146 323.732 374.154C323.732 369.55 323.188 365.424 322.859 361.939C322.529 358.455 322.243 355.649 322.114 353.699C322.042 352.718 322.014 351.963 321.999 351.447C321.971 351.184 321.975 350.918 322.014 350.655Z" fill="#455A64"/>
<path d="M319.823 383.464C319.663 383.388 319.518 383.29 319.393 383.174C319.022 382.866 318.673 382.538 318.348 382.193C317.123 380.916 316.154 379.466 315.484 377.903C315.253 377.387 315.061 376.857 314.911 376.318C314.705 375.702 314.705 375.047 314.911 374.431C315.046 374.079 315.298 373.77 315.635 373.546C315.973 373.322 316.379 373.192 316.801 373.173C317.242 373.189 317.67 373.307 318.042 373.514C318.414 373.722 318.717 374.012 318.921 374.356C319.297 375.025 319.525 375.75 319.594 376.494C319.708 377.211 319.78 377.954 319.823 378.708C319.901 380.265 319.858 381.824 319.694 383.376C319.522 384.973 319.264 386.508 318.964 387.992C318.792 388.722 318.634 389.452 318.477 390.156C318.358 390.89 318.086 391.597 317.675 392.244C317.454 392.578 317.139 392.857 316.76 393.053C316.382 393.249 315.952 393.356 315.513 393.364C315.057 393.368 314.616 393.22 314.281 392.949C313.978 392.682 313.791 392.33 313.751 391.955C313.715 391.319 313.852 390.685 314.152 390.106C314.381 389.577 314.639 389.074 314.911 388.596C315.732 387.107 316.767 385.716 317.99 384.457C318.402 383.985 318.884 383.562 319.422 383.199C317.832 384.935 316.468 386.821 315.355 388.823C315.112 389.288 314.868 389.791 314.653 390.32C314.408 390.823 314.3 391.371 314.338 391.917C314.357 392.167 314.485 392.399 314.697 392.566C314.908 392.733 315.186 392.821 315.47 392.811C315.796 392.8 316.113 392.715 316.392 392.565C316.67 392.416 316.9 392.205 317.059 391.955C317.478 391.348 317.764 390.679 317.904 389.98C318.047 389.276 318.205 388.558 318.362 387.829C318.649 386.357 318.906 384.835 319.064 383.262C319.225 381.74 319.273 380.211 319.207 378.683C319.207 377.954 319.107 377.224 318.992 376.519C318.952 375.856 318.762 375.206 318.434 374.607C318.293 374.352 318.079 374.133 317.813 373.971C317.547 373.81 317.238 373.713 316.916 373.689C316.619 373.71 316.337 373.807 316.102 373.968C315.868 374.129 315.693 374.347 315.598 374.595C315.36 375.654 315.516 376.752 316.042 377.727C316.646 379.261 317.516 380.703 318.62 382.004C319.336 382.96 319.866 383.426 319.823 383.464Z" fill="#455A64"/>
<path d="M447.944 469.234C448.221 469.434 448.48 469.652 448.717 469.888L450.808 471.838C452.598 473.562 455.104 476.065 458.197 479.273C466.104 487.656 473.37 496.49 479.949 505.716C483.772 511.125 487.324 516.321 490.116 521.29C491.45 523.652 492.414 526.161 492.98 528.75C493.479 531.027 493.361 533.376 492.637 535.606C492.132 537.222 491.238 538.723 490.015 540.008C488.792 541.293 487.269 542.331 485.548 543.053C484.603 543.424 483.589 543.641 482.555 543.695H481.496C482.855 543.631 484.189 543.349 485.434 542.865C486.866 542.264 488.139 541.407 489.171 540.349C490.542 538.944 491.553 537.296 492.135 535.518C492.799 533.354 492.877 531.084 492.364 528.888C491.791 526.357 490.827 523.907 489.5 521.605C486.708 516.711 483.142 511.541 479.333 506.119C472.784 496.942 465.611 488.12 457.853 479.701C454.889 476.455 452.383 473.914 450.693 472.153L448.703 470.115C448.419 469.843 448.165 469.548 447.944 469.234Z" fill="#455A64"/>
<path d="M507.186 526.196C507.478 527.009 507.561 527.868 507.429 528.712C507.293 530.738 506.685 532.718 505.643 534.529C504.602 536.34 503.148 537.944 501.372 539.242C500.675 539.806 499.85 540.234 498.952 540.5C499.602 539.919 500.29 539.373 501.014 538.864C502.627 537.517 503.968 535.939 504.98 534.197C505.983 532.455 506.637 530.574 506.914 528.637C506.956 527.82 507.046 527.005 507.186 526.196Z" fill="#455A64"/>
<path d="M544.16 567.22C542.796 567.149 541.438 567.007 540.093 566.792C536.835 566.404 533.556 566.161 530.27 566.062C526.432 565.962 522.952 566.062 520.432 566.238C519.073 566.387 517.705 566.454 516.336 566.44C517.649 566.086 519.004 565.866 520.374 565.785C526.97 565.101 533.645 565.283 540.179 566.326C541.542 566.481 542.879 566.781 544.16 567.22Z" fill="#AA6550"/>
<path d="M529.038 550.274C527.412 551.15 525.659 551.827 523.826 552.287C522.086 552.965 520.251 553.434 518.37 553.684C519.998 552.822 521.745 552.146 523.568 551.671C525.318 551.008 527.156 550.539 529.038 550.274Z" fill="#AA6550"/>
<path d="M433.395 342C432.722 343.38 431.966 344.728 431.132 346.038C429.7 348.554 427.882 351.988 426.149 355.939C424.675 359.31 423.394 362.745 422.311 366.229C421.466 368.896 421.008 370.569 420.879 370.556C420.85 370.133 420.898 369.708 421.022 369.298C421.151 368.531 421.409 367.424 421.767 366.065C422.717 362.525 423.937 359.045 425.419 355.649C426.902 352.256 428.648 348.957 430.645 345.774C431.404 344.516 432.077 343.585 432.55 342.931C432.783 342.589 433.067 342.275 433.395 342Z" fill="#455A64"/>
<path d="M423.127 348.227C423.342 348.227 422.411 352.076 422.197 356.844C421.982 361.612 422.526 365.487 422.297 365.512C421.964 364.702 421.766 363.855 421.71 362.996C421.44 360.946 421.354 358.881 421.452 356.819C421.545 354.756 421.828 352.703 422.297 350.68C422.42 349.828 422.701 349 423.127 348.227Z" fill="#455A64"/>
<path d="M658.204 199.204H447.786V208.715H658.204V199.204Z" fill="#455A64"/>
<path d="M629.794 112.755L629.65 112.49C629.536 112.289 629.378 112.05 629.192 111.748C628.777 111.107 628.132 110.176 627.202 109.018C624.595 105.732 621.247 102.953 617.364 100.854C614.681 99.4113 611.705 98.4413 608.6 97.9982C604.982 97.5376 601.29 97.8792 597.86 98.992C594.021 100.179 590.778 102.512 588.695 105.584C586.576 108.83 585.903 112.616 584.671 116.252C584.093 118.027 583.23 119.722 582.108 121.284C580.937 122.752 579.483 124.029 577.812 125.058C576.18 126.127 574.461 127.083 572.9 128.19C571.38 129.279 570.04 130.55 568.919 131.964C566.873 134.618 565.478 137.617 564.824 140.77C564.221 143.487 564.038 146.263 564.28 149.023C564.656 152.988 565.457 156.914 566.671 160.747C567.086 162.106 567.43 163.163 567.659 163.867C567.766 164.231 567.9 164.588 568.06 164.936C568.012 164.561 567.926 164.191 567.802 163.829C567.602 163.062 567.315 162.005 566.957 160.684C565.852 156.851 565.129 152.941 564.795 148.998C564.605 146.28 564.816 143.553 565.425 140.883C566.097 137.823 567.477 134.916 569.478 132.342C570.566 130.965 571.873 129.733 573.359 128.681C574.876 127.599 576.58 126.655 578.256 125.574C580.017 124.507 581.553 123.179 582.795 121.649C583.965 120.017 584.862 118.246 585.459 116.39C586.705 112.692 587.378 108.955 589.397 105.861C591.399 102.929 594.504 100.705 598.175 99.5707C601.49 98.4759 605.063 98.1256 608.571 98.5517C611.609 98.9513 614.528 99.8702 617.163 101.256C621.02 103.3 624.378 105.993 627.044 109.182C628.004 110.301 628.691 111.207 629.135 111.836C629.327 112.157 629.548 112.464 629.794 112.755Z" fill="#E0E0E0"/>
<path d="M575.764 126.064C576.895 125.133 577.454 125.787 578.986 126.064C580.51 126.359 581.927 126.982 583.11 127.876C585.728 129.775 587.657 132.305 588.66 135.155C589.662 138.005 589.694 141.05 588.752 143.915C586.305 144.033 583.867 143.567 581.697 142.566C579.527 141.565 577.706 140.067 576.427 138.23C575.148 136.393 574.459 134.287 574.433 132.134C574.407 129.98 575.045 127.861 576.28 126.001" fill="#E0E0E0"/>
<path d="M622.49 107.383C623.063 106.125 623.922 106.477 625.354 106.125C626.875 105.816 628.459 105.842 629.965 106.2C633.247 106.934 636.214 108.492 638.503 110.684C640.792 112.876 642.304 115.606 642.853 118.541C640.701 119.577 638.27 120.08 635.818 119.999C633.366 119.917 630.985 119.253 628.929 118.077C626.872 116.902 625.217 115.258 624.139 113.322C623.06 111.386 622.6 109.229 622.805 107.081" fill="#E0E0E0"/>
<path d="M565.468 151.363C567.022 149.784 568.965 148.537 571.148 147.715C573.332 146.893 575.7 146.518 578.073 146.619C580.446 146.719 582.761 147.293 584.845 148.295C586.928 149.298 588.725 150.704 590.099 152.407C586.6 155.204 582.056 156.779 577.325 156.835C572.543 156.727 567.966 155.105 564.437 152.268" fill="#E0E0E0"/>
<path d="M569.306 132.467C566.922 132.53 564.552 132.12 562.373 131.267C560.194 130.414 558.262 129.14 556.721 127.541C555.18 125.942 554.069 124.058 553.471 122.029C552.873 120 552.804 117.88 553.267 115.824C555.764 115.341 558.362 115.455 560.792 116.152C563.222 116.849 565.395 118.105 567.085 119.79C568.776 121.474 569.923 123.525 570.406 125.73C570.89 127.935 570.693 130.213 569.836 132.329" fill="#E0E0E0"/>
<path d="M585.76 110.264C583.531 111.023 581.136 111.331 578.752 111.165C576.369 110.999 574.06 110.362 571.995 109.303C569.931 108.244 568.165 106.79 566.829 105.048C565.493 103.306 564.622 101.322 564.28 99.2436C566.453 98.0566 568.949 97.4028 571.507 97.3504C574.065 97.298 576.593 97.8489 578.827 98.9457C581.061 100.043 582.919 101.645 584.209 103.587C585.499 105.529 586.173 107.739 586.16 109.987" fill="#E0E0E0"/>
<path d="M591.273 103.018C593.501 102.256 595.897 101.946 598.281 102.111C600.665 102.276 602.976 102.912 605.042 103.972C607.107 105.031 608.873 106.487 610.208 108.23C611.543 109.973 612.413 111.958 612.753 114.038C610.58 115.221 608.085 115.873 605.529 115.923C602.973 115.974 600.448 115.422 598.216 114.326C595.985 113.23 594.128 111.628 592.839 109.688C591.55 107.748 590.876 105.541 590.886 103.294" fill="#E0E0E0"/>
<path d="M597.846 99.1178C595.585 98.4461 593.526 97.3359 591.821 95.8696C590.115 94.4032 588.808 92.6184 587.995 90.6476C587.182 88.6767 586.885 86.5703 587.125 84.4847C587.365 82.3991 588.137 80.3877 589.383 78.5999C591.916 78.9084 594.309 79.8075 596.314 81.2036C598.318 82.5998 599.86 84.4421 600.779 86.539C601.699 88.6358 601.962 90.9108 601.542 93.1273C601.122 95.3439 600.033 97.421 598.39 99.143" fill="#E0E0E0"/>
<path d="M614.686 99.8223C613.875 97.8525 613.578 95.7476 613.818 93.6634C614.059 91.5793 614.83 89.5693 616.074 87.7825C617.319 85.9957 619.005 84.4777 621.008 83.3411C623.011 82.2045 625.28 81.4784 627.646 81.2165C628.975 83.1441 629.687 85.3511 629.707 87.6047C629.726 89.8583 629.053 92.0748 627.758 94.0202C626.463 95.9657 624.595 97.5679 622.349 98.6577C620.104 99.7476 617.565 100.285 615.001 100.212" fill="#E0E0E0"/>
<path d="M546.781 199.846L537.802 150.369L606.581 151.098L599.793 199.204" fill="#263238"/>
<path d="M576.452 141.324C578.117 142.317 580.046 142.918 582.052 143.067C584.058 143.217 586.075 142.911 587.908 142.179C589.684 141.298 591.183 140.044 592.273 138.529C593.362 137.015 594.008 135.286 594.151 133.499C592.4 132.719 590.481 132.271 588.52 132.184C586.558 132.097 584.598 132.374 582.767 132.996C580.975 133.694 579.373 134.719 578.067 136.003C576.761 137.287 575.781 138.801 575.191 140.443" fill="#0077B6"/>
<path d="M607.898 151.979C609.564 152.972 611.493 153.573 613.499 153.723C615.505 153.872 617.521 153.567 619.354 152.834C621.125 151.951 622.621 150.698 623.71 149.186C624.799 147.675 625.447 145.951 625.598 144.167C623.867 143.338 621.946 142.861 619.978 142.77C618.009 142.679 616.042 142.977 614.222 143.642C612.401 144.307 610.774 145.322 609.459 146.612C608.144 147.903 607.175 149.436 606.624 151.098" fill="#6BCACB"/>
<path d="M590.242 128.178C591.004 129.816 592.232 131.255 593.81 132.357C595.387 133.458 597.26 134.185 599.249 134.468C601.281 134.586 603.316 134.262 605.171 133.525C607.027 132.787 608.648 131.659 609.889 130.241C608.959 128.714 607.653 127.389 606.065 126.363C604.476 125.338 602.647 124.638 600.711 124.315C598.774 123.991 596.78 124.053 594.874 124.495C592.969 124.937 591.2 125.748 589.698 126.869" fill="#0077B6"/>
<path d="M601.726 140.519C599.724 140.428 597.729 140.79 595.932 141.57C594.134 142.349 592.594 143.521 591.459 144.972C590.46 146.533 589.915 148.287 589.872 150.078C589.83 151.868 590.291 153.641 591.215 155.237C593.186 155.158 595.111 154.692 596.849 153.874C598.588 153.056 600.095 151.906 601.261 150.509C602.428 149.111 603.223 147.502 603.588 145.8C603.953 144.097 603.88 142.344 603.373 140.67" fill="#0077B6"/>
<path d="M612.796 159.992C611.857 161.55 611.39 163.294 611.437 165.056C611.485 166.818 612.046 168.539 613.068 170.056C614.258 171.512 615.838 172.687 617.669 173.478C619.501 174.268 621.526 174.648 623.564 174.585C624.266 172.961 624.57 171.226 624.457 169.492C624.343 167.757 623.815 166.064 622.906 164.521C621.101 161.64 617.836 160.206 613.77 159.389" fill="#0077B6"/>
<path d="M631.082 162.282C630.296 161.625 629.372 161.108 628.362 160.76C627.163 160.395 625.906 160.2 624.638 160.181C622.94 160.186 621.242 160.274 619.555 160.445C617.46 160.681 615.331 160.522 613.311 159.98C611.011 159.158 609.163 157.584 608.156 155.589C607.055 153.467 606.303 151.218 605.922 148.909C605.547 146.496 604.647 144.169 603.273 142.053C601.642 140.076 599.682 138.324 597.459 136.858C595.345 135.449 593.474 133.779 591.903 131.901C589.436 128.551 588.448 124.525 589.125 120.579C589.525 117.915 590.687 115.382 592.504 113.22C593 112.647 593.551 112.113 594.151 111.622C594.346 111.435 594.568 111.27 594.81 111.132C594.659 111.346 594.476 111.54 594.266 111.71C593.715 112.235 593.203 112.789 592.733 113.371C591.064 115.527 590.008 118.003 589.655 120.592C589.063 124.433 590.081 128.331 592.519 131.562C594.083 133.376 595.923 134.993 597.989 136.367C600.278 137.867 602.291 139.666 603.96 141.701C605.378 143.887 606.306 146.291 606.695 148.784C607.065 151.038 607.777 153.238 608.815 155.325C609.739 157.192 611.447 158.675 613.583 159.464C615.519 160.008 617.564 160.184 619.583 159.98C621.287 159.836 622.999 159.782 624.71 159.816C626.016 159.857 627.305 160.095 628.519 160.521C629.292 160.792 629.998 161.194 630.595 161.703C630.752 161.83 630.896 161.969 631.025 162.118C631.054 162.282 631.097 162.282 631.082 162.282Z" fill="#0077B6"/>
<path d="M631.082 162.282C630.296 161.625 629.372 161.108 628.362 160.76C627.163 160.395 625.906 160.2 624.638 160.181C622.94 160.186 621.242 160.274 619.555 160.445C617.46 160.681 615.331 160.522 613.311 159.98C611.011 159.158 609.163 157.584 608.156 155.589C607.055 153.467 606.303 151.218 605.922 148.909C605.547 146.496 604.647 144.169 603.273 142.053C601.642 140.076 599.682 138.324 597.459 136.858C595.345 135.449 593.474 133.779 591.903 131.901C589.436 128.551 588.448 124.525 589.125 120.579C589.525 117.915 590.687 115.382 592.504 113.22C593 112.647 593.551 112.113 594.151 111.622C594.346 111.435 594.568 111.27 594.81 111.132C594.659 111.346 594.476 111.54 594.266 111.71C593.715 112.235 593.203 112.789 592.733 113.371C591.064 115.527 590.008 118.003 589.655 120.592C589.063 124.433 590.081 128.331 592.519 131.562C594.083 133.376 595.923 134.993 597.989 136.367C600.278 137.867 602.291 139.666 603.96 141.701C605.378 143.887 606.306 146.291 606.695 148.784C607.065 151.038 607.777 153.238 608.815 155.325C609.739 157.192 611.447 158.675 613.583 159.464C615.519 160.008 617.564 160.184 619.583 159.98C621.287 159.836 622.999 159.782 624.71 159.816C626.016 159.857 627.305 160.095 628.519 160.521C629.292 160.792 629.998 161.194 630.595 161.703C630.752 161.83 630.896 161.969 631.025 162.118C631.054 162.282 631.097 162.282 631.082 162.282Z" fill="#0077B6"/>
<path d="M499.768 167.314C499.917 164.775 499.344 162.243 498.1 159.947C496.855 157.651 494.979 155.664 492.64 154.165C490.302 152.667 487.575 151.704 484.707 151.364C481.838 151.024 478.918 151.318 476.212 152.218C478.256 156.216 481.438 159.684 485.451 162.289C489.464 164.893 494.173 166.546 499.124 167.088" fill="#0077B6"/>
<path d="M495.257 169.453C491.892 172.698 492.107 177.919 494.513 181.768C496.918 185.618 501.057 188.348 505.21 190.788C506.62 186.618 506.431 182.156 504.671 178.089C502.912 174.023 499.68 170.577 495.472 168.283" fill="#0077B6"/>
<path d="M511.553 154.243C511.818 156.612 512.626 158.909 513.929 160.996C515.232 163.082 517.004 164.915 519.136 166.384C521.268 167.852 523.716 168.926 526.334 169.54C528.951 170.154 531.684 170.295 534.365 169.956C533.062 165.201 530.885 160.42 526.718 157.2C522.551 153.979 515.95 152.772 511.324 155.489" fill="#0077B6"/>
<path d="M511.439 149.4C510.594 145.073 505.711 141.94 500.77 141.538C495.83 141.135 490.89 142.984 486.894 145.626C489.914 148.663 494.138 150.575 498.706 150.973C503.274 151.37 507.843 150.223 511.482 147.765" fill="#0077B6"/>
<path d="M485.82 186.184C481.095 189.719 479.906 196.034 481.868 201.205C483.83 206.375 488.426 210.514 493.596 213.533C495.586 208.4 496.832 202.903 495.773 197.569C494.713 192.235 491.076 187.052 485.448 184.926" fill="#0077B6"/>
<path d="M510.666 137.273C511.916 135.654 513.573 134.31 515.51 133.343C517.446 132.377 519.61 131.815 521.833 131.701C524.056 131.587 526.279 131.923 528.331 132.684C530.382 133.445 532.207 134.611 533.663 136.09C532.698 137.992 531.14 139.614 529.168 140.769C527.197 141.924 524.893 142.566 522.524 142.618C520.155 142.671 517.818 142.133 515.782 141.067C513.747 140 512.097 138.45 511.024 136.594" fill="#0077B6"/>
<path d="M516.465 124.806C513.914 125.49 511.226 125.69 508.58 125.394C505.934 125.097 503.39 124.31 501.116 123.085C498.842 121.86 496.89 120.225 495.388 118.288C493.887 116.351 492.871 114.156 492.407 111.849C496.183 111.454 500.002 111.501 503.763 111.987C507.533 112.501 511.033 114.021 513.787 116.34C515.031 117.425 515.929 118.778 516.391 120.264C516.853 121.75 516.864 123.316 516.422 124.806" fill="#0077B6"/>
<path d="M527.363 121.573C525.595 120.309 524.169 118.716 523.186 116.909C522.204 115.103 521.69 113.127 521.682 111.124C521.674 109.122 522.171 107.143 523.139 105.33C524.106 103.517 525.519 101.915 527.277 100.64C530.679 104.277 532.997 108.6 534.021 113.22C534.515 114.933 534.515 116.728 534.021 118.441C533.767 119.311 533.241 120.1 532.502 120.721C531.763 121.341 530.841 121.767 529.84 121.951" fill="#0077B6"/>
<g opacity="0.4">
<path d="M499.768 167.314C499.917 164.775 499.344 162.243 498.1 159.947C496.855 157.651 494.979 155.664 492.64 154.165C490.302 152.667 487.575 151.704 484.707 151.364C481.838 151.024 478.918 151.318 476.212 152.218C478.256 156.216 481.438 159.684 485.451 162.289C489.464 164.893 494.173 166.546 499.124 167.088" fill="black"/>
</g>
<g opacity="0.4">
<path d="M495.257 169.453C491.892 172.698 492.107 177.919 494.513 181.768C496.918 185.618 501.057 188.348 505.21 190.788C506.62 186.618 506.431 182.156 504.671 178.089C502.912 174.023 499.68 170.577 495.472 168.283" fill="#6BCACB"/>
</g>
<g opacity="0.4">
<path d="M511.553 154.243C511.818 156.612 512.626 158.909 513.929 160.996C515.232 163.082 517.004 164.915 519.136 166.384C521.268 167.852 523.716 168.926 526.334 169.54C528.951 170.154 531.684 170.295 534.365 169.956C533.062 165.201 530.885 160.42 526.718 157.2C522.551 153.979 515.95 152.772 511.324 155.489" fill="black"/>
</g>
<g opacity="0.4">
<path d="M511.439 149.4C510.594 145.073 505.711 141.94 500.77 141.538C495.83 141.135 490.89 142.984 486.894 145.626C489.914 148.663 494.138 150.575 498.706 150.973C503.274 151.37 507.843 150.223 511.482 147.765" fill="#6BCACB"/>
</g>
<g opacity="0.4">
<path d="M485.82 186.184C481.095 189.719 479.906 196.034 481.868 201.205C483.83 206.375 488.426 210.514 493.596 213.533C495.586 208.4 496.832 202.903 495.773 197.569C494.713 192.235 491.076 187.052 485.448 184.926" fill="black"/>
</g>
<g opacity="0.4">
<path d="M510.666 137.273C511.916 135.654 513.573 134.31 515.51 133.343C517.446 132.377 519.61 131.815 521.833 131.701C524.056 131.587 526.279 131.923 528.331 132.684C530.382 133.445 532.207 134.611 533.663 136.09C532.698 137.992 531.14 139.614 529.168 140.769C527.197 141.924 524.893 142.566 522.524 142.618C520.155 142.671 517.818 142.133 515.782 141.067C513.747 140 512.097 138.45 511.024 136.594" fill="black"/>
</g>
<g opacity="0.4">
<path d="M516.465 124.806C513.914 125.49 511.226 125.69 508.58 125.394C505.934 125.097 503.39 124.31 501.116 123.085C498.842 121.86 496.89 120.225 495.388 118.288C493.887 116.351 492.871 114.156 492.407 111.849C496.183 111.454 500.002 111.501 503.763 111.987C507.533 112.501 511.033 114.021 513.787 116.34C515.031 117.425 515.929 118.778 516.391 120.264C516.853 121.75 516.864 123.316 516.422 124.806" fill="black"/>
</g>
<g opacity="0.4">
<path d="M527.363 121.573C525.595 120.309 524.169 118.716 523.186 116.909C522.204 115.103 521.69 113.127 521.682 111.124C521.674 109.122 522.171 107.143 523.139 105.33C524.106 103.517 525.519 101.915 527.277 100.64C530.679 104.277 532.997 108.6 534.021 113.22C534.515 114.933 534.515 116.728 534.021 118.441C533.767 119.311 533.241 120.1 532.502 120.721C531.763 121.341 530.841 121.767 529.84 121.951" fill="black"/>
</g>
<path d="M546.236 151.954C546.217 151.841 546.217 151.727 546.236 151.614C546.236 151.35 546.236 151.023 546.308 150.62C546.308 149.74 546.465 148.457 546.494 146.846C546.724 142.165 545.851 137.493 543.931 133.122C542.548 130.141 540.402 127.481 537.659 125.347C534.502 122.897 530.414 121.577 526.203 121.649C523.981 121.664 521.795 122.134 519.816 123.02C517.752 123.993 516.03 125.441 514.833 127.209C512.341 130.819 511.725 135.348 511.969 139.789C512.212 144.23 512.885 148.746 512.312 153.073C512.061 155.198 511.428 157.274 510.436 159.225C509.473 161.129 507.999 162.799 506.14 164.094C504.351 165.247 502.365 166.143 500.255 166.748C498.323 167.32 496.461 168.062 494.699 168.962C491.589 170.661 489.068 173.075 487.41 175.944C486.03 178.307 485.308 180.924 485.305 183.58C485.289 185.587 485.662 187.582 486.407 189.48C487.071 191.092 487.94 192.632 488.999 194.072C488.908 193.996 488.827 193.911 488.756 193.82C488.598 193.631 488.355 193.38 488.083 193.002C487.281 191.928 486.623 190.775 486.121 189.568C485.324 187.648 484.907 185.623 484.889 183.58C484.845 180.857 485.548 178.164 486.937 175.73C488.614 172.766 491.184 170.264 494.369 168.497C497.777 166.509 502.26 165.981 505.725 163.628C509.19 161.276 510.995 157.149 511.539 152.998C512.083 148.847 511.353 144.368 511.167 139.814C510.98 135.26 511.568 130.606 514.188 126.832C515.453 124.968 517.276 123.445 519.458 122.429C521.554 121.479 523.874 120.975 526.231 120.957C530.602 120.899 534.836 122.291 538.088 124.856C540.889 127.051 543.067 129.791 544.446 132.857C545.587 135.363 546.319 137.997 546.623 140.682C546.847 142.705 546.91 144.74 546.809 146.771C546.738 148.431 546.594 149.715 546.48 150.545C546.48 150.947 546.38 151.274 546.337 151.526C546.337 151.673 546.303 151.819 546.236 151.954Z" fill="#0077B6"/>
<g opacity="0.4">
<path d="M546.236 151.954C546.217 151.841 546.217 151.727 546.236 151.614C546.236 151.35 546.236 151.023 546.308 150.62C546.308 149.74 546.465 148.457 546.494 146.846C546.724 142.165 545.851 137.493 543.931 133.122C542.548 130.141 540.402 127.481 537.659 125.347C534.502 122.897 530.414 121.577 526.203 121.649C523.981 121.664 521.795 122.134 519.816 123.02C517.752 123.993 516.03 125.441 514.833 127.209C512.341 130.819 511.725 135.348 511.969 139.789C512.212 144.23 512.885 148.746 512.312 153.073C512.061 155.198 511.428 157.274 510.436 159.225C509.473 161.129 507.999 162.799 506.14 164.094C504.351 165.247 502.365 166.143 500.255 166.748C498.323 167.32 496.461 168.062 494.699 168.962C491.589 170.661 489.068 173.075 487.41 175.944C486.03 178.307 485.308 180.924 485.305 183.58C485.289 185.587 485.662 187.582 486.407 189.48C487.071 191.092 487.94 192.632 488.999 194.072C488.908 193.996 488.827 193.911 488.756 193.82C488.598 193.631 488.355 193.38 488.083 193.002C487.281 191.928 486.623 190.775 486.121 189.568C485.324 187.648 484.907 185.623 484.889 183.58C484.845 180.857 485.548 178.164 486.937 175.73C488.614 172.766 491.184 170.264 494.369 168.497C497.777 166.509 502.26 165.981 505.725 163.628C509.19 161.276 510.995 157.149 511.539 152.998C512.083 148.847 511.353 144.368 511.167 139.814C510.98 135.26 511.568 130.606 514.188 126.832C515.453 124.968 517.276 123.445 519.458 122.429C521.554 121.479 523.874 120.975 526.231 120.957C530.602 120.899 534.836 122.291 538.088 124.856C540.889 127.051 543.067 129.791 544.446 132.857C545.587 135.363 546.319 137.997 546.623 140.682C546.847 142.705 546.91 144.74 546.809 146.771C546.738 148.431 546.594 149.715 546.48 150.545C546.48 150.947 546.38 151.274 546.337 151.526C546.337 151.673 546.303 151.819 546.236 151.954Z" fill="black"/>
</g>
<path d="M646.376 141.16C647.004 139.746 647.353 138.249 647.407 136.732C647.42 134.96 646.959 133.211 646.061 131.625C644.838 129.536 642.865 127.861 640.448 126.857C639.064 126.27 637.569 125.916 636.037 125.813C634.37 125.727 632.698 125.898 631.097 126.316C627.717 127.096 624.381 128.832 620.4 129.473C618.353 129.884 616.222 129.841 614.199 129.348C612.09 128.732 610.302 127.474 609.159 125.8C606.753 122.529 606.08 118.428 603.173 115.409C601.732 113.942 599.852 112.861 597.745 112.289C595.7 111.709 593.538 111.516 591.402 111.723C587.312 112.098 583.537 113.82 580.834 116.541C578.412 119.008 576.646 121.917 575.664 125.058C574.745 127.795 574.353 130.648 574.504 133.499C574.782 137.643 575.375 141.766 576.28 145.84C576.566 147.249 576.781 148.356 576.939 149.186C576.939 149.538 577.053 149.828 577.082 150.067C577.098 150.167 577.098 150.269 577.082 150.369C577.035 150.276 577.002 150.179 576.981 150.079L576.767 149.211C576.566 148.394 576.308 147.287 575.965 145.89C574.945 141.813 574.27 137.676 573.946 133.512C573.761 130.609 574.133 127.7 575.048 124.907C576.04 121.654 577.861 118.643 580.375 116.101C581.757 114.743 583.388 113.6 585.201 112.717C587.146 111.792 589.283 111.219 591.484 111.033C593.686 110.847 595.908 111.052 598.018 111.635C600.238 112.252 602.221 113.397 603.746 114.943C606.81 118.177 607.469 122.303 609.774 125.41C610.814 126.967 612.463 128.139 614.414 128.706C616.323 129.179 618.336 129.226 620.271 128.844C624.109 128.203 627.431 126.542 630.925 125.762C632.597 125.335 634.342 125.169 636.08 125.272C638.258 125.441 640.351 126.095 642.162 127.171C643.974 128.247 645.443 129.711 646.433 131.423C647.334 133.064 647.767 134.873 647.694 136.694C647.651 137.838 647.4 138.967 646.949 140.041C646.804 140.431 646.612 140.806 646.376 141.16Z" fill="#0077B6"/>
<path d="M606.151 119.233C607.98 120.205 610.049 120.777 612.182 120.9C614.316 121.022 616.451 120.692 618.409 119.938C620.185 119.058 621.686 117.807 622.778 116.295C623.87 114.782 624.519 113.056 624.667 111.27C622.905 110.483 620.975 110.031 619.001 109.942C617.028 109.853 615.055 110.13 613.211 110.754C611.435 111.472 609.85 112.51 608.562 113.802C607.274 115.094 606.311 116.611 605.736 118.252" fill="#0077B6"/>
<path d="M619.182 129.574C619.195 131.454 619.721 133.305 620.718 134.969C621.715 136.633 623.153 138.061 624.91 139.135C626.688 140.009 628.684 140.482 630.721 140.513C632.757 140.544 634.771 140.131 636.581 139.311C636.485 137.582 635.948 135.894 635.011 134.371C634.075 132.848 632.761 131.529 631.168 130.51C629.574 129.492 627.741 128.8 625.804 128.485C623.866 128.171 621.872 128.242 619.97 128.693" fill="#0077B6"/>
<path d="M641.808 127.322C643.749 128.114 645.876 128.485 648.014 128.407C650.151 128.328 652.236 127.801 654.095 126.869C655.75 125.828 657.086 124.444 657.985 122.839C658.885 121.235 659.319 119.461 659.25 117.673C657.428 117.011 655.46 116.715 653.491 116.809C651.522 116.902 649.602 117.383 647.873 118.214C646.143 119.046 644.647 120.208 643.496 121.614C642.345 123.02 641.568 124.636 641.221 126.341" fill="#6BCACB"/>
<path d="M587.12 112.352C583.826 109.836 581.621 105.471 582.251 102.187C582.682 100.431 583.603 98.7951 584.93 97.4274C586.257 96.0596 587.949 95.0023 589.855 94.35C591.271 95.5568 592.361 97.0276 593.043 98.6539C593.726 100.28 593.984 102.02 593.798 103.746C593.613 105.471 592.988 107.138 591.971 108.624C590.954 110.109 589.57 111.374 587.922 112.327" fill="#0077B6"/>
<path d="M498.837 98.124C498.874 98.0317 498.922 97.9432 498.98 97.8598C499.095 97.6585 499.252 97.4195 499.424 97.1176C499.854 96.476 500.498 95.5451 501.429 94.3877C504.023 91.1055 507.357 88.3265 511.224 86.2233C513.924 84.7746 516.921 83.8045 520.045 83.3677C523.659 82.9076 527.346 83.2492 530.771 84.3615C534.62 85.5454 537.87 87.8841 539.95 90.966C542.069 94.199 542.814 97.9856 543.974 101.621C544.552 103.397 545.416 105.091 546.537 106.653C547.707 108.122 549.161 109.399 550.833 110.427C552.48 111.497 554.198 112.453 555.759 113.572C557.28 114.661 558.62 115.931 559.74 117.346C561.78 120.003 563.174 123.001 563.836 126.152C564.439 128.869 564.622 131.645 564.38 134.405C564.007 138.371 563.201 142.298 561.974 146.129C561.573 147.488 561.229 148.545 561 149.249C560.889 149.616 560.755 149.977 560.599 150.331C560.643 149.956 560.724 149.586 560.843 149.224L561.702 146.066C562.808 142.234 563.527 138.323 563.85 134.38C564.045 131.663 563.838 128.935 563.234 126.265C562.555 123.207 561.177 120.301 559.182 117.724C558.093 116.347 556.786 115.115 555.301 114.063C553.783 112.981 552.079 112.037 550.403 110.956C548.639 109.892 547.102 108.564 545.864 107.031C544.694 105.399 543.797 103.628 543.2 101.772C541.955 98.0863 541.282 94.3374 539.262 91.2427C537.26 88.3115 534.155 86.0867 530.484 84.9527C527.165 83.8568 523.586 83.5066 520.074 83.9338C517.04 84.3487 514.125 85.2666 511.482 86.6385C507.632 88.6848 504.279 91.3779 501.615 94.5639C500.656 95.6835 499.968 96.5892 499.51 97.2182C499.315 97.5361 499.09 97.8391 498.837 98.124Z" fill="#0077B6"/>
<path d="M552.867 111.434C551.735 110.503 551.177 111.157 549.645 111.434C548.15 111.734 546.759 112.347 545.592 113.22C542.958 115.107 541.012 117.631 539.994 120.479C538.976 123.328 538.931 126.376 539.864 129.247C542.311 129.365 544.749 128.899 546.919 127.898C549.089 126.897 550.91 125.399 552.189 123.562C553.468 121.725 554.157 119.618 554.183 117.465C554.209 115.312 553.571 113.193 552.337 111.333" fill="#0077B6"/>
<path d="M506.14 92.7523C505.568 91.4943 504.708 91.8466 503.276 91.4943C501.756 91.1857 500.172 91.2116 498.665 91.5698C495.381 92.2989 492.412 93.8556 490.122 96.0483C487.832 98.2409 486.322 100.974 485.777 103.911C487.929 104.946 490.361 105.45 492.813 105.368C495.265 105.286 497.645 104.622 499.702 103.447C501.759 102.271 503.414 100.628 504.492 98.6914C505.57 96.7551 506.031 94.5983 505.825 92.4504" fill="#0077B6"/>
<path d="M563.163 136.732C561.609 135.153 559.666 133.906 557.483 133.084C555.299 132.262 552.931 131.888 550.558 131.988C548.185 132.089 545.869 132.662 543.786 133.665C541.703 134.668 539.906 136.074 538.532 137.776C542.043 140.558 546.592 142.115 551.32 142.154C556.103 142.051 560.682 140.428 564.208 137.587" fill="#0077B6"/>
<path d="M559.325 117.837C561.708 117.897 564.077 117.485 566.254 116.632C568.432 115.778 570.362 114.504 571.903 112.906C573.444 111.307 574.555 109.424 575.154 107.396C575.753 105.369 575.824 103.249 575.363 101.194C572.867 100.711 570.269 100.824 567.839 101.521C565.409 102.219 563.236 103.475 561.545 105.159C559.855 106.843 558.708 108.894 558.224 111.099C557.741 113.304 557.938 115.583 558.795 117.698" fill="#6BCACB"/>
<path d="M542.871 95.608C545.1 96.37 547.496 96.68 549.88 96.5148C552.264 96.3496 554.575 95.7136 556.64 94.6541C558.705 93.5946 560.471 92.139 561.806 90.396C563.142 88.653 564.012 86.6676 564.351 84.5879C562.178 83.4041 559.684 82.7531 557.128 82.7024C554.571 82.6517 552.046 83.2032 549.815 84.2996C547.583 85.396 545.726 86.9974 544.437 88.9373C543.148 90.8773 542.474 93.085 542.484 95.3312" fill="#0077B6"/>
<path d="M537.358 88.3871C535.129 87.625 532.733 87.3151 530.349 87.4802C527.965 87.6454 525.654 88.2815 523.589 89.341C521.524 90.4005 519.758 91.8561 518.423 93.5991C517.087 95.3421 516.218 97.3275 515.878 99.4071C518.051 100.591 520.545 101.242 523.101 101.293C525.658 101.343 528.183 100.792 530.415 99.6955C532.646 98.599 534.503 96.9977 535.792 95.0577C537.081 93.1178 537.755 90.9101 537.745 88.6638" fill="#6BCACB"/>
<path d="M530.785 84.4873C533.046 83.8162 535.105 82.706 536.811 81.2394C538.516 79.7728 539.823 77.9875 540.635 76.016C541.447 74.0446 541.742 71.9378 541.5 69.8521C541.257 67.7665 540.483 65.7558 539.234 63.9693C536.701 64.2797 534.31 65.1802 532.307 66.5771C530.305 67.9741 528.765 69.8165 527.847 71.9131C526.929 74.0097 526.667 76.2839 527.088 78.4995C527.509 80.7151 528.598 82.7913 530.241 84.5124" fill="#0077B6"/>
<path d="M513.945 85.1918C514.756 83.2265 515.054 81.1264 514.818 79.0463C514.582 76.9663 513.817 74.9593 512.58 73.1736C511.343 71.3878 509.666 69.8689 507.671 68.7287C505.677 67.5885 503.416 66.8563 501.057 66.5859C499.743 68.5081 499.04 70.7052 499.023 72.9474C499.006 75.1896 499.675 77.3946 500.96 79.3321C502.245 81.2695 504.099 82.8681 506.327 83.9609C508.556 85.0537 511.078 85.6004 513.63 85.544" fill="#0077B6"/>
<path d="M536.928 194.109L542.198 199.846H606.91L611.321 194.109H536.928Z" fill="#263238"/>
<path d="M609.903 194.059C609.903 194.248 593.994 194.386 574.389 194.386C554.785 194.386 538.862 194.248 538.862 194.059C538.862 193.87 554.757 193.732 574.389 193.732C594.022 193.732 609.903 193.883 609.903 194.059Z" fill="#455A64"/>
<path d="M602.628 172.472C602.521 172.643 602.386 172.8 602.228 172.937C601.816 173.379 601.376 173.799 600.91 174.195C599.206 175.608 597.276 176.794 595.182 177.718C592.053 179.071 588.642 179.846 585.158 179.995C583.082 180.078 581.003 179.925 578.972 179.542C576.811 179.103 574.702 178.488 572.671 177.705C568.504 176.145 564.709 174.371 561.015 173.34C557.811 172.31 554.36 172.016 550.991 172.484C548.712 172.829 546.578 173.697 544.804 175C543.573 175.944 543.115 176.661 543.043 176.611C543.124 176.426 543.235 176.252 543.372 176.095C543.74 175.641 544.157 175.219 544.618 174.837C546.368 173.416 548.536 172.453 550.876 172.057C554.349 171.492 557.931 171.744 561.258 172.786C565.038 173.805 568.876 175.592 573 177.126C574.992 177.891 577.057 178.498 579.172 178.938C581.142 179.317 583.158 179.477 585.172 179.416C588.596 179.308 591.961 178.597 595.068 177.328C597.853 176.055 600.403 174.418 602.628 172.472Z" fill="#455A64"/>
<path d="M603.273 168.031C603.149 168.195 603 168.343 602.829 168.471C602.381 168.876 601.903 169.255 601.397 169.604C599.574 170.92 597.561 172.019 595.411 172.874C592.198 174.136 588.745 174.861 585.23 175.013C583.154 175.088 581.075 174.965 579.029 174.648C576.855 174.266 574.719 173.732 572.642 173.05C568.346 171.692 564.451 170.119 560.7 169.201C557.421 168.292 553.957 168.018 550.547 168.396C548.252 168.681 546.059 169.416 544.131 170.547C542.785 171.377 542.198 172.006 542.141 171.956C542.257 171.786 542.397 171.63 542.556 171.491C542.991 171.07 543.471 170.687 543.988 170.346C545.902 169.094 548.133 168.27 550.489 167.943C553.979 167.484 557.541 167.716 560.914 168.622C564.738 169.528 568.69 171.138 572.915 172.396C574.959 173.066 577.061 173.592 579.201 173.969C581.187 174.298 583.209 174.434 585.23 174.371C588.679 174.257 592.076 173.592 595.254 172.409C598.138 171.272 600.835 169.799 603.273 168.031Z" fill="#455A64"/>
<path d="M511.095 206.211H504.78V221.685H511.095V206.211Z" fill="#455A64"/>
<path d="M601.225 206.211H594.91V221.685H601.225V206.211Z" fill="#455A64"/>
<path d="M598.118 528.926C595.683 531.996 590.958 530.977 588.71 529.102C586.461 527.228 585.573 524.511 584.729 521.919C582.795 516.006 580.834 509.792 582.28 503.766C582.625 501.941 583.537 500.234 584.915 498.835C585.615 498.135 586.515 497.612 587.522 497.321C588.529 497.029 589.606 496.978 590.643 497.174C593.034 497.728 594.538 499.791 595.612 501.753C598.782 507.549 600.445 513.891 600.481 520.321C600.715 523.33 599.906 526.33 598.161 528.926" fill="#6BCACB"/>
<g opacity="0.2">
<path d="M598.118 528.926C595.683 531.996 590.958 530.977 588.71 529.102C586.461 527.228 585.573 524.511 584.729 521.919C582.795 516.006 580.834 509.792 582.28 503.766C582.625 501.941 583.537 500.234 584.915 498.835C585.615 498.135 586.515 497.612 587.522 497.321C588.529 497.029 589.606 496.978 590.643 497.174C593.034 497.728 594.538 499.791 595.612 501.753C598.782 507.549 600.445 513.891 600.481 520.321C600.715 523.33 599.906 526.33 598.161 528.926" fill="#6BCACB"/>
</g>
<path d="M588.953 544.475C584.849 542.785 580.238 542.292 575.793 543.066C573.369 543.251 571.083 544.135 569.291 545.582C567.673 547.155 567.358 549.935 569.22 551.281C570.427 551.996 571.88 552.32 573.33 552.199C576.809 552.199 580.662 551.62 583.44 553.457C585.029 554.501 586.089 556.25 587.979 556.766C588.928 556.959 589.923 556.874 590.813 556.524C591.702 556.175 592.437 555.579 592.905 554.828C593.81 553.301 594.01 551.526 593.464 549.872C593.235 548.728 592.709 547.646 591.927 546.71C591.144 545.774 590.127 545.009 588.953 544.475Z" fill="#6BCACB"/>
<path d="M604.848 533.392C603.589 531.951 602.751 530.26 602.406 528.469C602.062 526.677 602.222 524.839 602.872 523.114C604.213 519.673 606.611 516.625 609.803 514.308C613.424 511.471 617.642 509.283 622.218 507.867C623.989 507.237 625.895 506.953 627.803 507.037C628.758 507.087 629.685 507.343 630.502 507.782C631.318 508.22 631.999 508.829 632.486 509.553C633.789 511.742 632.486 514.396 631.183 516.56C628.795 520.38 626.065 524.027 623.02 527.467C620.586 530.234 617.779 532.964 614.056 534.222C610.333 535.48 606.466 535.317 604.49 533.052" fill="#6BCACB"/>
<path d="M598.29 575.246C598.166 574.788 598.094 574.32 598.075 573.849L597.645 570.075C597.428 568.2 597.103 566.336 596.671 564.49C596.108 562.241 595.337 560.037 594.366 557.898C593.412 555.758 592.12 553.746 590.528 551.922C589.233 550.437 587.58 549.221 585.688 548.362C584.403 547.803 583.026 547.425 581.607 547.243C581.069 547.233 580.536 547.166 580.017 547.041C580.555 546.995 581.097 546.995 581.635 547.041C583.123 547.131 584.579 547.459 585.931 548.01C587.926 548.839 589.676 550.062 591.044 551.583C592.702 553.424 594.039 555.472 595.01 557.659C595.995 559.831 596.762 562.074 597.301 564.364C597.716 566.234 597.999 568.124 598.146 570.025C598.29 571.635 598.347 572.944 598.361 573.799C598.399 574.282 598.375 574.767 598.29 575.246Z" fill="#263238"/>
<path d="M597.989 572.315C597.97 572.101 597.97 571.886 597.989 571.673C597.989 571.182 597.989 570.566 597.989 569.824C597.989 568.213 597.989 565.886 597.889 563.018C597.731 557.269 597.158 549.343 596.07 540.638C594.982 531.933 593.535 524.07 592.204 518.447C591.889 517.038 591.574 515.767 591.287 514.673C591.001 513.579 590.757 512.597 590.528 511.817C590.299 511.037 590.17 510.559 590.027 510.018C589.965 509.812 589.922 509.602 589.898 509.389C590.02 509.577 590.107 509.781 590.156 509.993C590.328 510.459 590.528 511.05 590.772 511.767C591.015 512.484 591.316 513.49 591.645 514.598C591.974 515.705 592.318 516.975 592.662 518.372C594.468 525.704 595.826 533.115 596.729 540.575C597.817 549.306 598.304 557.256 598.347 563.005C598.347 565.886 598.347 568.213 598.232 569.824C598.232 570.578 598.189 571.195 598.103 571.673C598.103 571.891 598.064 572.107 597.989 572.315Z" fill="#263238"/>
<path d="M597.946 556.979C597.886 556.339 597.886 555.695 597.946 555.055C598.032 553.797 598.218 552.01 598.619 549.809C599.112 547.242 599.767 544.701 600.581 542.198C601.542 539.114 602.757 536.095 604.218 533.166C606.732 527.771 610.347 522.825 614.886 518.573C615.665 517.838 616.503 517.153 617.392 516.522C617.779 516.233 618.123 515.944 618.466 515.717L619.44 515.126C620.03 514.744 620.647 514.395 621.287 514.082C619.159 515.566 617.132 517.158 615.216 518.849C610.831 523.14 607.315 528.059 604.819 533.392C603.376 536.304 602.151 539.296 601.154 542.349C600.208 545.154 599.578 547.733 599.091 549.897C598.605 552.061 598.375 553.847 598.218 555.08C598.185 555.718 598.094 556.354 597.946 556.979Z" fill="#263238"/>
</svg>
